<svg width="300" height="120" id="Layer_2" data-name="Layer 2" xmlns="http://www.w3.org/2000/svg" viewBox="0 0 364.31 146.33"><defs><style>.cls-2{fill:#006225}.cls-3{fill:#fff}.cls-5{fill:#6c217f}.cls-6{fill:#801d28}.cls-7{fill:#b4d88b}.cls-8{fill:#c41230}.cls-9{fill:#c0bebd}.cls-10{fill:#d8001d}.cls-11{fill:#231f20}.cls-12{fill:#9c3d97}.cls-13{fill:#62bb46}</style></defs><g id="badge"><path class="cls-8" d="M158.44 67.88h205.87v24.21H158.44z"/><path class="cls-3" d="M170.71 76.82h-4v2.5h3.76v1.91h-3.76v3.89h-2.38V74.91h6.38v1.91zm4.49 8.31h-2.4V74.92h2.4v10.21zm10.68 0h-2.78l-2.15-3.91h-.75v3.91h-2.4V74.92h3.67c1.14 0 2.03.24 2.69.73.68.5 1.12 1.32 1.12 2.34 0 1.94-1.24 2.69-2 2.93l2.59 4.22zm-3.52-8.1c-.29-.22-.68-.27-1.23-.27h-.95v2.62h.95c.55 0 .93-.06 1.23-.28.31-.22.52-.5.52-1.04s-.21-.81-.52-1.04zm11.81 8.1h-6.75V74.92h6.62v1.91h-4.23v2.09h4v1.91h-4v2.37h4.37v1.94zm15.07 0h-2.61l-.72-2.06h-3.64l-.72 2.06h-2.49l3.85-10.23h2.49l3.85 10.23zm-3.88-3.92l-1.27-3.67-1.27 3.67h2.54zm14.72 3.92h-2.46l-4.48-6.93s.04 1.23.04 2.31v4.62h-2.34V74.92h2.56l4.38 6.87s-.04-1.16-.04-2.24v-4.63h2.34v10.21zm10.01-1.22c-.84.71-2.16 1.21-3.94 1.21h-3.46V74.91h3.46c1.78 0 3.09.5 3.94 1.23.86.71 1.66 1.89 1.66 3.88s-.8 3.17-1.66 3.89zm-1.67-6.29c-.43-.4-1.14-.73-2.13-.73h-1.21v6.2h1.21c.99 0 1.7-.33 2.13-.74.43-.4.9-1.08.9-2.34s-.47-1.98-.9-2.4zm17.15 7.51h-2.78l-2.15-3.91h-.75v3.91h-2.4V74.92h3.67c1.14 0 2.03.24 2.69.73.68.5 1.12 1.32 1.12 2.34 0 1.94-1.24 2.69-2 2.93l2.59 4.22zm-3.52-8.1c-.29-.22-.68-.27-1.23-.27h-.95v2.62h.95c.55 0 .93-.06 1.23-.28.31-.22.52-.5.52-1.04s-.21-.81-.52-1.04zm11.81 8.1h-6.75V74.92h6.62v1.91h-4.23v2.09h4v1.91h-4v2.37h4.37v1.94zm7.91-.67c-.73.58-1.67.84-2.77.84-1.48 0-2.8-.77-3.63-1.54l1.18-1.75c.74.77 1.88 1.29 2.66 1.29s1.36-.37 1.36-1.05-.76-.96-1.2-1.12c-.45-.16-1.21-.43-1.55-.58-.25-.12-.77-.31-1.21-.74-.45-.41-.8-1.01-.8-1.97s.47-1.75 1.07-2.23c.58-.49 1.51-.81 2.69-.81s2.55.56 3.24 1.26l-1.02 1.67c-.59-.59-1.51-1.04-2.28-1.04s-1.33.3-1.33.92.58.86 1.04 1.04c.45.18 1.2.44 1.53.58.28.1.96.37 1.42.83.43.43.8 1.05.8 1.97 0 .98-.46 1.87-1.2 2.44zm11.74-.55c-.52.53-1.6 1.39-3.69 1.39-3.01 0-5.36-1.98-5.36-5.27s2.38-5.27 5.36-5.27c2.1 0 3.24.87 3.51 1.15l-.74 1.98c-.19-.25-1.29-1.07-2.63-1.07-1.73 0-3.06 1.16-3.06 3.15s1.39 3.14 3.06 3.14c1.27 0 2.19-.5 2.75-1.08l.8 1.86zm10.32-3.04c0 1.44-.25 2.43-.98 3.21-.71.77-1.82 1.21-3.3 1.21s-2.59-.44-3.31-1.21c-.71-.78-.96-1.78-.96-3.21v-5.95h2.41v5.95c0 .73.06 1.29.4 1.7.33.38.8.64 1.46.64s1.14-.25 1.47-.64c.34-.41.4-.98.4-1.7v-5.95h2.41v5.95zm9.27 4.26h-6.75V74.92h6.62v1.91h-4.23v2.09h4v1.91h-4v2.37h4.37v1.94zm11.58-.67c-.72.58-1.67.84-2.77.84-1.48 0-2.8-.77-3.62-1.54l1.18-1.75c.74.77 1.88 1.29 2.66 1.29s1.36-.37 1.36-1.05-.75-.96-1.2-1.12c-.44-.16-1.21-.43-1.55-.58-.25-.12-.77-.31-1.21-.74-.44-.41-.8-1.01-.8-1.97s.47-1.75 1.06-2.23c.58-.49 1.51-.81 2.7-.81s2.54.56 3.24 1.26l-1.02 1.67c-.59-.59-1.51-1.04-2.28-1.04s-1.33.3-1.33.92.58.86 1.04 1.04c.44.18 1.2.44 1.52.58.28.1.96.37 1.42.83.43.43.8 1.05.8 1.97 0 .98-.46 1.87-1.2 2.44zm9.96.67h-6.75V74.92h6.62v1.91h-4.23v2.09h4v1.91h-4v2.37h4.37v1.94zm10.3 0h-2.78l-2.15-3.91h-.75v3.91h-2.4V74.92h3.67c1.14 0 2.03.24 2.69.73.68.5 1.12 1.32 1.12 2.34 0 1.94-1.24 2.69-2 2.93l2.59 4.22zm-3.52-8.1c-.29-.22-.68-.27-1.23-.27h-.95v2.62h.95c.55 0 .93-.06 1.23-.28.31-.22.52-.5.52-1.04s-.21-.81-.52-1.04zm13.63-2.12l-3.79 10.21h-2.28l-3.79-10.21h2.54l2.4 7.03 2.38-7.03h2.53zm4.01 10.22h-2.4V74.92h2.4v10.21zm11.13-1.22c-.52.53-1.6 1.39-3.69 1.39-3 0-5.36-1.98-5.36-5.27s2.38-5.27 5.36-5.27c2.1 0 3.24.87 3.51 1.15l-.74 1.98c-.19-.25-1.29-1.07-2.63-1.07-1.73 0-3.06 1.16-3.06 3.15s1.39 3.14 3.06 3.14c1.27 0 2.19-.5 2.75-1.08l.8 1.86zm8.58 1.22h-6.75V74.92h6.62v1.91h-4.23v2.09h4v1.91h-4v2.37h4.37v1.94z"/><path class="cls-8" d="M167.27 61.6c-5.76 0-8.43-4.13-9.07-5.33l1.81-1.29c1.08 1.98 3.65 4.6 7.48 4.6s6.92-2.37 6.92-6.23-3.96-5.33-5.68-6.02c-1.72-.69-3.66-1.5-4.86-2.15-1.16-.64-4.3-2.58-4.3-6.88s3.74-7.31 8.73-7.31 7.48 3.44 7.74 3.87l-1.63 1.42c-1.12-1.42-2.84-3.23-6.28-3.23s-6.19 1.81-6.19 5.16 2.32 4.69 4.43 5.59c2.11.9 5.42 2.28 6.11 2.67.69.39 4.3 2.36 4.3 6.88s-3.74 8.26-9.5 8.26zm42.75-4.6c-2.15 2.36-5.59 4.6-10.96 4.6-8.6 0-14.96-6.28-14.96-15.31s6.58-15.31 14.96-15.31c5.16 0 8.6 2.15 10.75 4.3l-1.5 1.72c-1.5-1.93-4.95-3.91-9.25-3.91-7.31 0-12.47 5.37-12.47 13.11s5.16 13.2 12.47 13.2c4.08 0 7.31-1.55 9.46-3.91l1.5 1.5zm20.85 4.6c-8.04 0-15.05-5.85-15.05-15.31s7.01-15.31 15.05-15.31 15.05 5.85 15.05 15.31-6.97 15.31-15.05 15.31zm0-28.55c-6.75 0-12.6 4.86-12.6 13.2s5.89 13.16 12.6 13.16 12.64-4.9 12.64-13.16-5.85-13.2-12.64-13.2zm38.92.47h-8.82v27.56h-2.32V33.52h-8.82v-2.11h19.95v2.11zm24.38 0h-8.82v27.56h-2.32V33.52h-8.82v-2.11h19.95v2.11zm9.97 27.56h-2.32V31.41h2.32v29.67zm18.23.52c-5.76 0-8.43-4.13-9.07-5.33l1.81-1.29c1.07 1.98 3.65 4.6 7.48 4.6s6.92-2.37 6.92-6.23-3.96-5.33-5.68-6.02c-1.72-.69-3.66-1.5-4.86-2.15-1.16-.64-4.3-2.58-4.3-6.88s3.74-7.31 8.73-7.31 7.48 3.44 7.74 3.87l-1.63 1.42c-1.12-1.42-2.84-3.23-6.28-3.23s-6.19 1.81-6.19 5.16 2.32 4.69 4.43 5.59c2.11.9 5.42 2.28 6.11 2.67.69.39 4.3 2.36 4.3 6.88s-3.74 8.26-9.5 8.26zm41.67-.52h-2.32V46.25h-18.36v14.83h-2.32V31.41h2.32v12.73h18.36V31.41h2.32v29.67zm-194.91 44.95l-2.53 8.67h-.63l-2.41-7.69-2.39 7.69h-.63l-2.53-8.67h.71l2.17 7.5 2.32-7.5h.71l2.32 7.5 2.17-7.5h.72zm4.11 8.78c-1.66 0-2.97-1.25-2.97-3.01s1.32-3.04 2.97-3.04 2.99 1.28 2.99 3.04-1.32 3.01-2.99 3.01zm0-5.48c-1.4 0-2.28 1.09-2.28 2.45s.88 2.45 2.28 2.45 2.29-1.1 2.29-2.45-.88-2.45-2.29-2.45zm7.63.16c-.14-.05-.31-.1-.63-.1-.56 0-.9.39-1 .53-.1.14-.41.63-.41 1.63v3.14h-.65v-5.82h.65v1.09c.21-.79.85-1.19 1.48-1.19.38 0 .63.09.63.09l-.06.64zm6.27 5.2h-.82l-2.38-3.2-.79.73v2.47h-.65v-8.65h.65v5.46l2.8-2.62h.81l-2.38 2.22 2.76 3.6zm1.78-7.35c-.3 0-.54-.24-.54-.54s.24-.54.54-.54.54.24.54.54-.24.54-.54.54zm.33 7.35h-.65v-5.82h.65v5.82zm7.03 0h-.66v-3.45c0-.94-.16-1.91-1.42-1.91s-1.86 1.09-1.86 2.47v2.88h-.65v-5.82h.65v1.08c.29-.69 1.04-1.18 1.88-1.18 1.67 0 2.06 1.07 2.06 2.45v3.47zm7.59-1.26c0 1.32-.16 2.01-.48 2.51-.31.5-1 1.25-2.51 1.25s-2.45-.88-2.45-.88l.38-.5c.31.31 1.19.79 2.13.79s1.5-.41 1.76-.75c.25-.35.5-.98.5-1.98v-.43c-.43.75-1.15 1.24-2.2 1.24-1.53 0-2.85-1.14-2.85-2.96s1.32-2.96 2.85-2.96c1.04 0 1.81.51 2.2 1.2v-1.1h.66v4.57zm-2.82-4.09c-1.44 0-2.2 1.05-2.2 2.37s.75 2.38 2.2 2.38 2.19-1.07 2.19-2.38-.75-2.37-2.19-2.37zm10.61 5.28s-.31.19-.88.19-.89-.24-1.1-.63c-.2-.39-.21-.82-.21-1.76v-2.95h-.88v-.59h.88v-1.86h.67v1.86h1.47v.59h-1.48v3.34c0 .64.08 1.41.85 1.41.38 0 .63-.16.63-.16l.06.56zm4.16.19c-1.66 0-2.97-1.25-2.97-3.01s1.32-3.04 2.97-3.04 2.99 1.28 2.99 3.04-1.32 3.01-2.99 3.01zm0-5.48c-1.41 0-2.28 1.09-2.28 2.45s.88 2.45 2.28 2.45 2.29-1.1 2.29-2.45-.88-2.45-2.29-2.45zm10.2 4.1c0 1.32-.16 2.01-.48 2.51-.31.5-1 1.25-2.51 1.25s-2.45-.88-2.45-.88l.38-.5c.31.31 1.19.79 2.13.79s1.5-.41 1.76-.75c.25-.35.5-.98.5-1.98v-.43c-.43.75-1.15 1.24-2.2 1.24-1.53 0-2.85-1.14-2.85-2.96s1.32-2.96 2.85-2.96c1.04 0 1.81.51 2.2 1.2v-1.1h.66v4.57zm-2.82-4.09c-1.44 0-2.2 1.05-2.2 2.37s.75 2.38 2.2 2.38 2.19-1.07 2.19-2.38-.75-2.37-2.19-2.37zm10.19 2.59h-4.73c.06 1.38.84 2.3 2.16 2.3s2.04-.75 2.04-.75l.31.46s-.73.88-2.42.88-2.78-1.25-2.78-3.04 1.28-3.01 2.82-3.01 2.63 1.15 2.63 2.72c0 .19-.04.44-.04.44zm-.63-.56c0-.75-.56-2.03-2.01-2.03s-2.03 1.22-2.07 2.03h4.08zm4.94 3.25s-.31.19-.88.19-.89-.24-1.1-.63c-.2-.39-.21-.82-.21-1.76v-2.95h-.88v-.59h.88v-1.86h.67v1.86h1.47v.59h-1.48v3.34c0 .64.08 1.41.85 1.41.38 0 .63-.16.63-.16l.06.56zm6.28.07h-.66v-3.45c0-.94-.16-1.91-1.42-1.91s-1.86 1.09-1.86 2.47v2.88h-.65v-8.65h.65v3.91c.29-.69 1.04-1.18 1.88-1.18 1.67 0 2.06 1.07 2.06 2.45v3.47zm7.37-2.76h-4.73c.06 1.38.84 2.3 2.16 2.3s2.05-.75 2.05-.75l.31.46s-.73.88-2.42.88-2.78-1.25-2.78-3.04 1.28-3.01 2.82-3.01 2.63 1.15 2.63 2.72c0 .19-.04.44-.04.44zm-.63-.56c0-.75-.56-2.03-2.01-2.03s-2.03 1.22-2.07 2.03h4.08zm5.25-1.88c-.14-.05-.31-.1-.63-.1-.56 0-.9.39-1 .53-.1.14-.41.63-.41 1.63v3.14h-.65v-5.82h.65v1.09c.21-.79.85-1.19 1.48-1.19.38 0 .63.09.63.09l-.06.64zm7.09-2.89s-.31-.13-.63-.13c-.94 0-1.04.75-1.04 1.57v.85h1.48v.59h-1.48v5.21h-.65v-5.21h-.88v-.59h.88v-.79c0-.82.15-1.25.34-1.53.19-.29.6-.66 1.23-.66s.82.13.82.13l-.06.56zm3.54 8.21c-1.66 0-2.97-1.25-2.97-3.01s1.32-3.04 2.97-3.04 2.99 1.28 2.99 3.04-1.32 3.01-2.99 3.01zm0-5.48c-1.41 0-2.28 1.09-2.28 2.45s.88 2.45 2.28 2.45 2.29-1.1 2.29-2.45-.88-2.45-2.29-2.45zm7.63.16c-.14-.05-.31-.1-.63-.1-.56 0-.9.39-1 .53-.1.14-.41.63-.41 1.63v3.14h-.65v-5.82h.65v1.09c.21-.79.85-1.19 1.48-1.19.38 0 .63.09.63.09l-.06.64zm8.59 5.2h-.66v-.82c-.21.25-.84.94-1.97.94s-1.94-.75-1.94-1.76.75-1.69 2.32-1.76l1.59-.06v-.31c0-1.07-.72-1.59-1.63-1.59s-1.59.4-1.72.5l-.25-.48c.38-.25 1.07-.59 1.94-.59s1.41.28 1.76.65c.34.38.56.81.56 1.82v3.45zm-.66-2.95l-1.66.1c-1.22.06-1.61.59-1.61 1.22s.48 1.19 1.42 1.19 1.57-.63 1.84-1.07v-1.44zm7.43 3.07c-1.08 0-1.76-.53-2.12-1.13l.46-.38c.38.55.95.92 1.68.92s1.37-.35 1.37-1.1-1.04-1.02-1.54-1.19c-.5-.17-1.59-.55-1.59-1.61s.92-1.55 1.77-1.55 1.38.3 1.83.82l-.4.4c-.4-.44-.8-.66-1.46-.66s-1.12.33-1.12.93.63.87 1.34 1.12c.73.25 1.82.63 1.82 1.73s-.97 1.72-2.04 1.72zm7.91-.12h-.66v-.82c-.21.25-.84.94-1.97.94s-1.94-.75-1.94-1.76.75-1.69 2.32-1.76l1.59-.06v-.31c0-1.07-.72-1.59-1.63-1.59s-1.59.4-1.72.5l-.25-.48c.38-.25 1.07-.59 1.94-.59s1.41.28 1.76.65c.34.38.56.81.56 1.82v3.45zm-.66-2.95l-1.66.1c-1.22.06-1.61.59-1.61 1.22s.48 1.19 1.42 1.19 1.57-.63 1.84-1.07v-1.44zm5.43-5.14s-.31-.13-.63-.13c-.94 0-1.04.75-1.04 1.57v.85h1.48v.59h-1.48v5.21h-.65v-5.21h-.88v-.59h.88v-.79c0-.82.15-1.25.34-1.53.19-.29.6-.66 1.23-.66s.82.13.82.13l-.06.56zm5.96 5.33h-4.73c.06 1.38.84 2.3 2.16 2.3s2.04-.75 2.04-.75l.31.46s-.73.88-2.42.88-2.78-1.25-2.78-3.04 1.28-3.01 2.82-3.01 2.63 1.15 2.63 2.72c0 .19-.04.44-.04.44zm-.63-.56c0-.75-.56-2.03-2.01-2.03s-2.03 1.22-2.07 2.03h4.08zm5.25-1.88c-.14-.05-.31-.1-.63-.1-.56 0-.9.39-1 .53-.1.14-.41.63-.41 1.63v3.14h-.65v-5.82h.65v1.09c.21-.79.85-1.19 1.48-1.19.38 0 .63.09.63.09l-.06.64zm6.85 5.35c-1.68 0-2.46-1.2-2.65-1.56l.53-.38c.31.58 1.07 1.34 2.18 1.34s2.02-.69 2.02-1.82-1.15-1.56-1.66-1.76c-.5-.2-1.07-.44-1.42-.63-.34-.19-1.25-.75-1.25-2.01s1.09-2.13 2.55-2.13 2.18 1 2.26 1.13l-.48.41c-.33-.41-.83-.94-1.83-.94s-1.81.53-1.81 1.5.68 1.37 1.29 1.63c.62.26 1.58.66 1.78.78.2.11 1.25.69 1.25 2.01s-1.09 2.41-2.77 2.41zm9.58-1.03c-.21.25-.82 1-2.38 1s-2.85-1.25-2.85-3.04 1.38-3.01 2.91-3.01 2.17.84 2.29 1l-.41.44c-.25-.29-.75-.85-1.91-.85s-2.2.94-2.2 2.38.9 2.48 2.22 2.48 1.94-.85 1.94-.85l.38.44zm4.14 1c-1.66 0-2.97-1.25-2.97-3.01s1.32-3.04 2.97-3.04 2.99 1.28 2.99 3.04-1.32 3.01-2.99 3.01zm0-5.48c-1.41 0-2.28 1.09-2.28 2.45s.88 2.45 2.28 2.45 2.29-1.1 2.29-2.45-.88-2.45-2.29-2.45zm7.32 5.29s-.31.19-.88.19-.89-.24-1.1-.63c-.2-.39-.21-.82-.21-1.76v-2.95h-.88v-.59h.88v-1.86h.67v1.86h1.47v.59h-1.48v3.34c0 .64.08 1.41.85 1.41.38 0 .63-.16.63-.16l.06.56zm2.34.07h-.65v-8.65h.65v8.65zm6.47 0h-.66v-.82c-.21.25-.84.94-1.97.94s-1.94-.75-1.94-1.76.75-1.69 2.32-1.76l1.59-.06v-.31c0-1.07-.72-1.59-1.63-1.59s-1.59.4-1.72.5l-.25-.48c.38-.25 1.07-.59 1.94-.59s1.41.28 1.76.65c.34.38.56.81.56 1.82v3.45zm-.66-2.95l-1.66.1c-1.22.06-1.61.59-1.61 1.22s.48 1.19 1.42 1.19 1.57-.63 1.84-1.07v-1.44zm7.51 2.95h-.66v-3.45c0-.94-.16-1.91-1.42-1.91s-1.86 1.09-1.86 2.47v2.88h-.65v-5.82h.65v1.08c.29-.69 1.04-1.18 1.88-1.18 1.67 0 2.06 1.07 2.06 2.45v3.47zm4.74-5.92c.84 0 1.62.34 2.18 1.19v-3.93h.66v8.65h-.66v-1.08c-.49.83-1.28 1.2-2.16 1.2-1.76 0-2.88-1.32-2.88-3.04s1.13-3.01 2.86-3.01zm.03 5.46c1.42 0 2.19-1.1 2.19-2.45s-.78-2.45-2.19-2.45-2.2 1.09-2.2 2.45.79 2.45 2.2 2.45z"/><path class="cls-9" d="M27.21 73.26c0-25.21 20.44-45.64 45.64-45.64s45.64 20.44 45.64 45.64-20.43 45.64-45.64 45.64-45.64-20.44-45.64-45.64z"/><path class="cls-11" d="M72.85 119.35c-25.41 0-46.09-20.68-46.09-46.09s20.68-46.09 46.09-46.09 46.09 20.68 46.09 46.09-20.68 46.09-46.09 46.09zm0-91.29c-24.92 0-45.2 20.28-45.2 45.2s20.28 45.2 45.2 45.2 45.2-20.28 45.2-45.2-20.28-45.2-45.2-45.2z"/><path class="cls-10" d="M29.93 73.11c0-23.74 19.24-42.98 42.98-42.98s42.99 19.24 42.99 42.98-19.25 42.98-42.99 42.98-42.98-19.24-42.98-42.98z"/><path class="cls-11" d="M72.92 116.54c-23.95 0-43.43-19.48-43.43-43.43s19.48-43.43 43.43-43.43 43.43 19.48 43.43 43.43-19.48 43.43-43.43 43.43zm0-85.97c-23.46 0-42.54 19.08-42.54 42.54s19.08 42.54 42.54 42.54 42.54-19.08 42.54-42.54-19.08-42.54-42.54-42.54z"/><path class="cls-9" d="M38.97 73.37c0-18.73 15.18-33.91 33.91-33.91s33.91 15.18 33.91 33.91-15.18 33.91-33.91 33.91S38.97 92.1 38.97 73.37z"/><path class="cls-11" d="M72.88 107.72c-18.94 0-34.35-15.41-34.35-34.35s15.41-34.35 34.35-34.35 34.35 15.41 34.35 34.35-15.41 34.35-34.35 34.35zm0-67.82c-18.45 0-33.46 15.01-33.46 33.46s15.01 33.46 33.46 33.46 33.46-15.01 33.46-33.46S91.33 39.9 72.88 39.9z"/><path d="M41.15 73.28c0-17.59 14.26-31.86 31.86-31.86s31.86 14.26 31.86 31.86-14.26 31.86-31.86 31.86-31.86-14.26-31.86-31.86z" fill="#fdb913"/><path class="cls-11" d="M73.01 105.44c-17.73 0-32.15-14.42-32.15-32.15s14.42-32.15 32.15-32.15 32.15 14.42 32.15 32.15-14.42 32.15-32.15 32.15zm0-63.71c-17.4 0-31.56 14.16-31.56 31.56s14.16 31.56 31.56 31.56 31.56-14.16 31.56-31.56-14.16-31.56-31.56-31.56z"/><path class="cls-3" d="M52.03 49.4c6.45-5.63 13.11-7.94 20.82-7.94 8.74 0 15.41 2.91 20.9 7.72.25.22-20.9 55.2-20.9 55.21 0 0-20.83-55.05-20.82-54.99z"/><path d="M92.92 52.19s1.1-2.7 1.09-2.72c-.75-1.15-5.17-4.14-5.58-4.2-.67-.09-2.03.94-4.21.87-1.92-.06-2.95-1.77-5.58-1.74-2.37.03-3.13 1.75-5.5 1.73-2.6-.02-3.04-1.7-5.82-1.7-2.46 0-3.3 1.88-5.47 1.81-1.92-.06-3.51-1.27-4.21-.92-4.49 2.2-5.35 4.15-5.19 4.4.07.11.41 2.45.57 2.4.63-.22 1.37-1.19 3.37-1.22 2.42-.04 3 1.7 5.75 1.84 2.54.13 4.01-1.64 5.72-1.72 1.84-.09 2.31 2.91 4.75 2.96 2.12.04 3.69-2.99 5.87-3.14 2.33-.16 3.32 1.94 5.88 1.86 2.75-.08 3.33-1.81 5.83-1.74 2.03.06 1.98 1.14 2.72 1.24zm-2.54 5.74c-2.67-.26-2.94 1.69-5.65 1.74-1.92.03-3.36-1.95-5.99-1.92-2.38.02-3.13 1.94-5.49 1.91-2.6-.03-3.05-1.9-5.82-1.91-2.46 0-3.01 2.14-5.17 2.02-2.73-.16-3.81-1.8-5.79-2-.77-.08-.78.11-.84.33-.13.47 2.55 7.48 2.59 7.48.74 0 1.31 1.22 4.06 1.38 2.54.15 4-1.81 5.71-1.9 1.84-.09 2.68 1.87 5.13 1.92 2.12.05 1.85-1.03 4.03-1.19 2.33-.17 4.86 1.76 7.37 1.19 1.83-.42 2.42-1.21 3.16-.99.1.03 3.14-8.03 2.72-8.07zm-5.56 15.5c-2.44 2.82-4.86-.14-7.49-.12-2.38.02-1.93 1.7-4.29 1.66-2.6-.03-1.68-1.52-4.46-1.53-2.46-.01-4.22 1.7-7.34-.29-.23-.14 2.96 7.83 3.32 8.08.82.58 3.35.97 5.05.88 1.84-.09.85.43 3.29.49 2.12.05 1.79-.48 3.97-.64 2.33-.17 3.17.23 4.51-.62.28-.18 3.71-8.26 3.43-7.93zm-6.15 15.88c-2.37-1.26-3.24 1.46-5.62 1.36-1.85-.07-3.79-2.77-5.71-1.29-.06.05 2.25 5.8 2.3 5.85.22.27 1.4 1.43 3.55 1.33 2.1-.1 2.6-1.16 3.2-1.33.14-.04 2.48-5.83 2.3-5.93z" fill="#005cab"/><path class="cls-6" d="M77.01 83.53c0 .88-1.46 1.54-4.02 1.54s-3.95-.57-3.95-1.44 1.39-1.74 3.95-1.74 4.02.77 4.02 1.65z"/><path class="cls-9" d="M42.8 38.73c-.16.14-9.37-10.81-9.45-10.97-2.48-4.89 4.82-7.87 6.67-4.34.76 1.44 7.41 11.78 7.41 11.78-2.04 1.56-3.11 2.15-4.63 3.52z"/><path class="cls-11" d="M42.94 39.21l-.22-.04c-.61-.11-9.7-11.1-9.76-11.2-1.37-2.7-.02-4.93 1.93-5.94 1.87-.97 4.45-.88 5.54 1.19.74 1.41 7.32 11.65 7.39 11.75l.22.34-.33.25c-.77.59-1.4 1.04-1.97 1.45-.95.68-1.7 1.21-2.63 2.05l-.16.15zm-5.67-16.88c-.67 0-1.37.18-1.97.5-1.44.75-2.71 2.44-1.54 4.74.34.45 7.57 9.02 9.05 10.57.84-.73 1.57-1.25 2.41-1.85.48-.34 1.01-.72 1.62-1.18-1.18-1.84-6.51-10.16-7.2-11.47-.49-.93-1.4-1.31-2.37-1.31z"/><path class="cls-9" d="M76.53 118.9c.21-.03.58 22.77.41 23.65-1.04 5.19-7.85 3.7-8.15-.3-.12-1.62.74-23.32.74-23.32 3.86 0 5.08.26 7-.04z"/><path class="cls-11" d="M73.12 146.33h-.3c-2.03-.12-4.29-1.58-4.47-4.03-.12-1.63.71-22.49.74-23.37l.02-.43h.43c1.46 0 2.55.04 3.43.07 1.46.05 2.34.08 3.5-.1l.23-.04.16.17c.46.48.56 23.85.52 24.05-.55 2.73-2.51 3.69-4.26 3.69zm-3.16-26.95c-.12 3.05-.83 21.39-.73 22.84.14 1.95 1.98 3.1 3.64 3.21 1.88.13 3.24-.99 3.63-2.96.15-.94-.16-20.02-.36-23.07-1.04.12-1.94.09-3.22.05-.79-.03-1.74-.06-2.97-.07z"/><path class="cls-9" d="M108.09 102.46c.13-.16 16.34 16.95 16.81 17.71 2.78 4.5-3.22 8.07-6.16 5.34-1.2-1.11-15.69-17.94-15.69-17.94 2.22-1.93 3.83-3.58 5.04-5.11z"/><path class="cls-11" d="M121.22 126.91c-.98 0-1.97-.32-2.78-1.07-1.2-1.11-15.13-17.29-15.72-17.98l-.29-.34.33-.29c2.12-1.84 3.75-3.49 4.98-5.05l.14-.18h.23c.67.05 17.05 17.76 17.16 17.93 1.54 2.5.59 4.64-.83 5.8-.86.71-2.04 1.17-3.23 1.17zm-17.54-19.29c2.05 2.38 14.29 16.58 15.37 17.57 1.43 1.32 3.57.92 4.85-.14 1.45-1.2 1.69-2.93.64-4.65-.55-.83-14.11-15.14-16.37-17.31-1.16 1.42-2.63 2.9-4.47 4.52z"/><path class="cls-9" d="M82.28 118.05c.2-.05 2.27 13.7 2.3 14.6.15 4.45-7.08 5.09-7.45.57-.13-1.62-.37-14.32-.37-14.32 2.62-.36 3.96-.48 5.52-.85z"/><path class="cls-11" d="M80.68 136.76c-1.84 0-3.8-1.06-4-3.5-.13-1.62-.36-13.83-.37-14.34v-.39l.38-.05c.68-.1 1.28-.17 1.82-.24 1.52-.2 2.53-.33 3.66-.6l.21-.05.17.13c.53.4 2.46 14.8 2.47 14.94.08 2.54-1.98 3.99-4.06 4.11h-.27zm-3.48-17.47c.04 2.16.24 12.46.36 13.89.16 1.97 1.79 2.75 3.34 2.68 1.6-.09 3.29-1.13 3.22-3.2-.02-.67-1.68-11.91-2.16-14.09-1.01.22-1.97.34-3.34.52-.43.06-.9.12-1.42.19z"/><path class="cls-9" d="M90.6 115.35c.19-.09 1.31 3.44 2.05 5.42 1.09 2.9-3.44 4.38-4.37 1.28-.48-1.61-1.76-5.22-1.76-5.22 2.04-.64 2.63-.78 4.08-1.48z"/><path class="cls-11" d="M90.46 124.22c-.19 0-.39-.02-.58-.06-.98-.21-1.72-.93-2.03-1.98-.47-1.58-1.74-5.16-1.75-5.2l-.15-.43 1.33-.42c1.37-.43 1.94-.6 3.12-1.18l.18-.09.2.08c.3.12.41.34 1.48 3.43.28.79.56 1.6.8 2.24.36.96.21 1.91-.4 2.62-.54.62-1.37.98-2.2.98zm-3.37-7.1c.35 1.01 1.23 3.52 1.61 4.8.22.74.71 1.23 1.36 1.37.7.15 1.47-.11 1.92-.63.28-.33.55-.9.24-1.73-.24-.65-.53-1.46-.8-2.26-.33-.95-.76-2.18-1-2.74-1.01.47-1.65.67-2.88 1.05l-.45.14z"/><path class="cls-9" d="M94.56 113.43c.18-.11 1.88 3.78 2.46 4.97 1.45 2.95-2.9 5.42-4.45 1.88-.74-1.71-1.94-4.88-1.94-4.88 1.11-.44 2.34-1.04 3.93-1.96z"/><path class="cls-11" d="M94.87 122.47c-.08 0-.17 0-.25-.01-.61-.06-1.75-.4-2.45-2-.74-1.7-1.94-4.87-1.95-4.9l-.15-.41.4-.16c1.21-.48 2.44-1.1 3.87-1.93l.17-.1.2.06c.29.09.42.24 2 3.68.29.62.54 1.18.71 1.52.5 1.02.44 2.11-.17 2.99-.55.79-1.46 1.27-2.38 1.27zm-3.67-6.83c.35.91 1.21 3.14 1.78 4.46.38.88.99 1.4 1.72 1.47.69.07 1.4-.28 1.82-.88.25-.36.59-1.1.1-2.1-.17-.34-.43-.91-.72-1.54-.44-.95-1.12-2.44-1.46-3.05-1.17.67-2.22 1.2-3.24 1.63z"/><path class="cls-9" d="M98.49 111.17c.18-.1 4.51 6.99 5.2 8.12 1.85 3.04-3.15 6.08-4.78 2.81-.73-1.46-4.24-8.71-4.24-8.71 2.3-1.11 2.04-1.19 3.82-2.22z"/><path class="cls-11" d="M101.06 123.95h-.09c-1.06-.03-1.93-.62-2.45-1.65-.73-1.46-4.24-8.72-4.24-8.72l-.19-.4.4-.19c1.42-.68 1.82-.96 2.39-1.33.34-.23.73-.48 1.4-.87.49-.28.56-.33 5.81 8.28.6.99.62 2.12.05 3.09-.62 1.07-1.88 1.8-3.07 1.8zm-5.79-10.36c.74 1.54 3.42 7.06 4.04 8.31.46.93 1.17 1.14 1.68 1.16.89.03 1.88-.53 2.37-1.36.29-.49.51-1.27-.05-2.18-2.42-3.97-4.3-6.95-4.91-7.79-.47.28-.77.48-1.04.66-.52.34-.94.62-2.1 1.2z"/><path class="cls-9" d="M102.97 107.65c.16-.14 9.53 10.76 9.61 10.92 2.48 4.89-4.82 7.87-6.67 4.34-.76-1.44-7.42-11.85-7.42-11.85 2.04-1.56 2.96-2.04 4.48-3.41z"/><path class="cls-11" d="M108.67 124.9c-1.27 0-2.49-.53-3.15-1.79-.74-1.41-7.33-11.71-7.4-11.82l-.22-.34.33-.25c.78-.59 1.39-1.03 1.94-1.42.89-.63 1.59-1.13 2.52-1.97l.16-.15.22.04c.21.04.36.07 5.15 5.57.05.05 4.66 5.36 4.77 5.59 1.37 2.7.02 4.93-1.93 5.94-.73.38-1.57.59-2.39.59zm-9.58-13.74c1.18 1.85 6.53 10.23 7.22 11.54.82 1.56 2.85 1.58 4.34.82 1.44-.75 2.71-2.44 1.54-4.74-.34-.45-7.71-9-9.21-10.53-.82.72-1.48 1.19-2.3 1.77-.46.33-.97.69-1.59 1.15z"/><path class="cls-9" d="M86.49 116.91c.2-.07 2.62 7.97 3 9.24 1 3.42-4.77 4.96-5.5 1.38-.33-1.6-1.65-9.51-1.65-9.51 1.45-.38 2.55-.52 4.15-1.11z"/><path class="cls-11" d="M86.52 130.02c-.34 0-.67-.04-.98-.14-1.05-.32-1.76-1.12-1.99-2.25-.32-1.58-1.59-9.21-1.65-9.53l-.07-.4.39-.1c.48-.13.93-.23 1.37-.33.87-.2 1.7-.38 2.74-.77s.18-.07.18-.07l.18.09c.13.07.49.25 3.22 9.51.32 1.1.06 2.14-.73 2.93-.69.68-1.69 1.06-2.66 1.06zm-3.68-11.67c.27 1.63 1.3 7.73 1.58 9.1.21 1.03.86 1.42 1.38 1.58.91.28 2.07-.02 2.76-.7.39-.39.79-1.06.5-2.05-.52-1.77-2.25-7.43-2.79-8.82-.93.32-1.69.49-2.48.67-.31.07-.62.14-.94.22z"/><path class="cls-9" d="M69.44 27.65c-.21 0-.62-22.99-.44-23.88 1.04-5.19 7.85-3.7 8.15.3.12 1.63-.74 23.58-.74 23.58-3.86 0-4.63-.11-6.97 0z"/><path class="cls-11" d="M69.25 28.1l-.15-.17c-.46-.54-.58-24.06-.54-24.25C69.14.8 71.3-.11 73.12 0c2.03.13 4.29 1.58 4.47 4.03.12 1.63-.7 22.73-.74 23.63l-.02.43h-.43c-1.53 0-2.58-.02-3.43-.03-1.27-.02-2.12-.04-3.51.03h-.22zm2.18-.95c.49 0 .98 0 1.56.02.76.01 1.69.03 2.99.03.12-3.07.83-21.64.73-23.1-.14-1.95-1.98-3.1-3.64-3.21-1.88-.11-3.24.99-3.63 2.96-.15.95.19 20.4.4 23.33.6-.02 1.1-.03 1.6-.03z"/><path class="cls-9" d="M37.87 43.69c-.14.15-16.36-16.77-16.83-17.53-2.78-4.5 3.22-8.07 6.16-5.34 1.2 1.11 15.6 17.98 15.6 17.98-1.87 1.7-3.45 3.34-4.93 4.89z"/><path class="cls-11" d="M38.04 44.16l-.22-.02c-.7-.07-17.06-17.57-17.16-17.74-1.54-2.5-.59-4.64.83-5.8 1.57-1.29 4.21-1.77 6.02-.1 1.2 1.11 15.05 17.33 15.64 18.02l.28.33-.32.29c-1.84 1.68-3.37 3.26-4.91 4.87l-.15.16zM24.71 20.31c-.97 0-1.95.39-2.66.97-1.45 1.2-1.69 2.93-.64 4.65.55.82 14.24 15.1 16.42 17.16 1.36-1.43 2.74-2.84 4.35-4.32-2.01-2.35-14.21-16.63-15.28-17.62-.64-.59-1.41-.84-2.19-.84z"/><path class="cls-9" d="M63.66 28.47c-.21.04-2.27-13.88-2.3-14.78-.15-4.45 7.08-5.09 7.45-.57.13 1.62.41 14.61.41 14.61-1.89.19-3.71.37-5.56.74z"/><path class="cls-11" d="M63.54 28.94l-.17-.13c-.53-.42-2.45-14.98-2.46-15.12-.08-2.54 1.98-3.99 4.06-4.11 1.91-.1 4.06.94 4.27 3.49.13 1.62.4 14.11.41 14.64v.41l-.4.04c-2.04.2-3.75.38-5.51.73l-.2.04zm1.72-18.48h-.23c-1.6.09-3.29 1.13-3.22 3.2.02.69 1.69 12.11 2.16 14.29 1.55-.29 3.05-.46 4.8-.63-.05-2.22-.28-12.74-.4-14.17-.15-1.87-1.63-2.68-3.1-2.68z"/><path class="cls-9" d="M55.4 31.1c-.19.09-1.37-3.56-2.11-5.54-1.08-2.9 3.44-4.38 4.37-1.28.48 1.61 1.7 5.22 1.7 5.22-1.56.59-2.63 1-3.96 1.59z"/><path class="cls-11" d="M55.4 31.58l-.2-.08c-.29-.13-.42-.38-1.56-3.62-.27-.78-.55-1.55-.78-2.17-.36-.96-.21-1.91.4-2.62.66-.77 1.78-1.14 2.78-.92.98.21 1.72.93 2.03 1.98.47 1.58 1.69 5.17 1.7 5.21l.14.41-.4.15c-1.57.6-2.65 1.01-3.94 1.58l-.18.08zm.06-8.58c-.58 0-1.15.25-1.52.67-.28.33-.55.89-.24 1.73.23.62.51 1.4.78 2.19.36 1.03.83 2.37 1.08 2.94 1.08-.47 2.03-.83 3.24-1.3-.33-.99-1.19-3.56-1.57-4.83-.22-.74-.71-1.22-1.36-1.36a1.81 1.81 0 00-.4-.04z"/><path class="cls-9" d="M51.4 32.91c-.18.11-1.9-3.79-2.48-4.98-1.45-2.95 2.9-5.42 4.45-1.87.74 1.7 1.96 4.93 1.96 4.93-1.48.7-2.34 1-3.93 1.93z"/><path class="cls-11" d="M51.45 33.39l-.2-.06c-.29-.09-.43-.26-2.05-3.76-.27-.59-.52-1.12-.68-1.45-.5-1.02-.44-2.11.17-2.99.6-.86 1.63-1.36 2.64-1.26.61.06 1.75.4 2.44 2.01.74 1.69 1.96 4.92 1.97 4.95l.15.38-.37.18c-.44.21-.83.39-1.2.55-.86.39-1.6.72-2.69 1.36s-.17.1-.17.1zm-.39-8.64c-.63 0-1.27.34-1.65.89-.25.36-.59 1.1-.1 2.09.16.33.41.87.69 1.47.45.98 1.16 2.51 1.51 3.13.95-.54 1.65-.85 2.44-1.21.26-.12.52-.24.81-.37-.35-.91-1.23-3.2-1.81-4.52-.38-.88-.99-1.4-1.72-1.48h-.17z"/><path class="cls-9" d="M47.51 35.25c-.18.11-4.57-7.07-5.26-8.2-1.85-3.04 3.15-6.08 4.78-2.82.73 1.46 4.19 8.72 4.19 8.72-1.78 1.04-1.93 1.26-3.71 2.3z"/><path class="cls-11" d="M47.51 35.71c-.42 0-1.18-1.11-5.65-8.44-.6-.99-.62-2.12-.05-3.1.64-1.1 1.95-1.83 3.16-1.8 1.06.03 1.93.62 2.45 1.65.72 1.45 4.16 8.66 4.19 8.73l.18.37-.35.21c-.88.51-1.36.82-1.83 1.14-.49.32-.97.64-1.87 1.16-.08.04-.14.08-.22.08zm-2.63-12.45c-.89 0-1.83.55-2.3 1.36-.29.49-.51 1.27.05 2.19 2.06 3.37 4.28 6.93 4.97 7.87.69-.41 1.11-.68 1.53-.96s.84-.55 1.52-.95c-.71-1.5-3.38-7.1-4.01-8.35-.46-.93-1.17-1.14-1.68-1.16h-.07z"/><path class="cls-9" d="M59.51 29.5c-.2.05-2.68-8.05-3.06-9.32-1-3.41 4.77-4.96 5.5-1.39.33 1.6 1.63 9.71 1.63 9.71-1.45.38-2.45.59-4.08 1z"/><path class="cls-11" d="M59.49 29.96c-.38 0-.87-.83-3.46-9.65-.32-1.1-.06-2.14.73-2.93.92-.91 2.42-1.29 3.65-.92 1.05.32 1.76 1.12 1.99 2.25.32 1.59 1.58 9.4 1.63 9.73l.06.4-.39.1c-.85.23-1.54.39-2.3.57-.54.13-1.1.26-1.78.43-.04.01-.08.02-.13.02zm-.07-12.75c-.74 0-1.52.29-2.04.81-.39.39-.79 1.06-.5 2.05.45 1.53 2.31 7.57 2.86 8.93.54-.13 1.01-.24 1.45-.35.63-.15 1.22-.29 1.89-.46-.27-1.65-1.28-7.92-1.56-9.29-.21-1.02-.86-1.42-1.38-1.58-.23-.07-.47-.1-.72-.1z"/><path class="cls-9" d="M27.35 77.11c.01.21-22.71.46-23.59.28-5.18-1.06-3.68-7.87.32-8.15 1.63-.12 23.19.79 23.19.79-.01 3.86-.07 4.89.07 7.08z"/><path class="cls-11" d="M7.89 77.85c-2.47 0-4.16 0-4.22-.02-2.88-.59-3.78-2.75-3.66-4.57.13-2.03 1.59-4.28 4.04-4.46 1.63-.12 22.36.75 23.24.79l.43.02v.43c0 .94-.01 1.71-.02 2.37-.02 2.09-.02 3.04.09 4.68v.22l-.15.15c-.38.33-12.98.4-19.75.4zM4.6 69.68h-.48c-1.95.14-3.11 1.97-3.22 3.63-.12 1.88.98 3.24 2.95 3.64.94.15 20.09-.06 23.03-.24-.09-1.44-.08-2.46-.06-4.33 0-.56 0-1.19.01-1.93-2.85-.12-18.98-.78-22.23-.78z"/><path class="cls-9" d="M43.73 108.46c.16.13-16.98 16.5-17.75 16.97-4.51 2.76-8.05-3.25-5.32-6.18 1.11-1.19 18.07-15.6 18.07-15.6 1.92 2.23 3.48 3.6 5 4.82z"/><path class="cls-11" d="M23.67 126.59c-1.38 0-2.52-.72-3.26-1.63-1.29-1.58-1.76-4.22-.08-6.02 1.12-1.2 17.41-15.05 18.11-15.64l.34-.29.29.33c2 2.32 3.56 3.66 4.94 4.76l.18.15v.23c-.06.69-17.8 17.21-17.98 17.32-.9.55-1.76.78-2.53.78zm15-22.32c-2.39 2.03-16.7 14.21-17.7 15.28-1.33 1.43-.93 3.56.12 4.85 1.19 1.46 2.93 1.7 4.64.65.82-.55 15.18-14.25 17.35-16.53-1.22-.99-2.67-2.27-4.42-4.25z"/><path class="cls-9" d="M28.17 82.86c.05.2-13.62 2.18-14.53 2.21-4.45.13-5.07-7.09-.54-7.45 1.63-.13 14.26-.43 14.26-.43.25 3.37.45 4.11.81 5.67z"/><path class="cls-11" d="M13.52 85.51c-2.46 0-3.85-2.03-3.96-4.08-.1-1.91.95-4.06 3.51-4.26 1.62-.13 13.76-.42 14.28-.43h.42l.03.41c.23 3.17.42 3.95.75 5.37l.1.43-.13.17c-.4.52-14.73 2.37-14.86 2.38h-.14zm13.42-7.87c-2.21.05-12.38.3-13.81.42-1.97.15-2.77 1.78-2.69 3.33.09 1.6 1.08 3.28 3.19 3.23.67-.02 11.82-1.61 14.01-2.07-.29-1.25-.48-2.14-.7-4.91z"/><path class="cls-9" d="M30.87 91.23c.09.19-3.4 1.22-5.38 1.95-2.9 1.07-4.37-3.46-1.27-4.38 1.61-.48 5.13-1.73 5.13-1.73.64 2.04.82 2.7 1.52 4.15z"/><path class="cls-11" d="M24.63 93.79c-.59 0-1.15-.2-1.61-.6-.76-.66-1.13-1.78-.91-2.79.21-.98.94-1.71 1.99-2.02 1.58-.47 5.07-1.71 5.11-1.72l.44-.15.29.94c.52 1.67.72 2.3 1.34 3.59l.09.18-.08.2c-.12.29-.3.38-3.07 1.3-.89.29-1.83.61-2.56.88-.34.13-.68.19-1.01.19zm4.43-6.13c-1 .35-3.43 1.2-4.72 1.58-.74.22-1.23.7-1.37 1.36-.15.7.1 1.47.63 1.93.33.28.89.56 1.73.25.74-.27 1.69-.59 2.59-.89.85-.28 1.87-.62 2.37-.82-.52-1.12-.74-1.83-1.21-3.35l-.02-.05z"/><path class="cls-9" d="M32.72 95.16c.11.18-3.69 1.82-4.88 2.4-2.96 1.44-5.41-2.92-1.86-4.45 1.71-.73 4.81-1.84 4.81-1.84.44 1.11 1.01 2.3 1.93 3.89z"/><path class="cls-11" d="M26.66 98.29c-.57 0-1.12-.17-1.61-.51-.86-.6-1.35-1.64-1.25-2.64.06-.61.41-1.75 2.01-2.44 1.7-.73 4.81-1.84 4.84-1.85l.4-.14.16.4c.48 1.21 1.06 2.39 1.9 3.83l.1.17-.06.2c-.09.29-.24.42-3.63 1.97-.6.27-1.14.52-1.48.69-.46.22-.93.33-1.38.33zm3.89-6.46c-.89.32-3.07 1.12-4.38 1.69-.88.38-1.41.99-1.48 1.71-.07.69.27 1.4.88 1.82.36.25 1.1.59 2.09.11.34-.17.89-.42 1.5-.69.93-.43 2.39-1.09 3-1.43a28.95 28.95 0 01-1.6-3.21z"/><path class="cls-9" d="M35.02 99.05c.11.18-6.95 4.49-8.09 5.18-3.04 1.84-6.06-3.17-2.8-4.79 1.46-.72 8.66-4.21 8.66-4.21 1.1 2.3 1.19 2.03 2.22 3.82z"/><path class="cls-11" d="M25.57 105.07c-.51 0-1.03-.14-1.5-.42-1.1-.64-1.83-1.95-1.79-3.17.04-1.06.63-1.93 1.66-2.44 1.46-.72 8.67-4.21 8.67-4.21l.4-.19.19.4c.67 1.4.96 1.83 1.32 2.37.23.34.49.73.89 1.42.27.46.34.59-8.24 5.78-.51.31-1.05.46-1.59.46zm7.02-9.24c-1.53.74-7.01 3.39-8.26 4.01-.93.46-1.14 1.17-1.16 1.68-.03.91.52 1.89 1.35 2.37.49.29 1.27.52 2.18-.04 2.27-1.38 6.68-4.1 7.75-4.88-.29-.48-.49-.78-.68-1.06-.34-.51-.62-.93-1.19-2.08z"/><path class="cls-9" d="M38.61 103.68c.14.16-10.83 9.36-10.99 9.44-4.9 2.47-7.85-4.84-4.31-6.69 1.45-.75 11.82-7.38 11.82-7.38 1.55 2.04 2.12 3.11 3.48 4.63z"/><path class="cls-11" d="M25.67 114.07c-1.71 0-3.06-1.1-3.77-2.5-.96-1.88-.86-4.45 1.21-5.53 1.41-.74 11.69-7.3 11.79-7.36l.35-.22.25.33c.59.78 1.04 1.42 1.45 2 .66.94 1.18 1.68 2.01 2.6l.15.16-.04.22c-.04.22-.07.36-5.61 5.06-.05.05-5.4 4.57-5.62 4.69-.76.38-1.49.55-2.15.55zm9.36-14.42c-1.85 1.18-10.2 6.5-11.51 7.18-1.57.82-1.6 2.85-.83 4.34.74 1.45 2.43 2.72 4.74 1.56.45-.33 9.05-7.57 10.6-9.05-.72-.83-1.23-1.56-1.81-2.38-.34-.49-.72-1.02-1.19-1.65z"/><path class="cls-9" d="M29.2 87.01c.07.2-7.81 2.62-9.08 2.99-3.42.99-4.94-4.79-1.37-5.51 1.6-.32 9.34-1.56 9.34-1.56.38 1.45.53 2.47 1.11 4.08z"/><path class="cls-11" d="M19.35 90.56c-.76 0-1.46-.3-2.03-.87-.91-.92-1.29-2.42-.91-3.65.32-1.05 1.12-1.75 2.26-1.98 1.59-.32 9.04-1.51 9.35-1.56l.4-.06.1.39c.12.45.21.85.3 1.25.2.87.4 1.7.79 2.79l.07.18-.09.18c-.29.57-9.26 3.18-9.35 3.21-.31.09-.61.13-.9.13zm8.42-7.12c-1.61.26-7.56 1.22-8.92 1.49-1.02.21-1.43.86-1.58 1.37-.28.91.01 2.07.69 2.76.39.39 1.05.8 2.05.51 1.43-.41 7.25-2.22 8.66-2.78-.33-.96-.51-1.72-.69-2.52-.06-.27-.13-.55-.2-.84z"/><path class="cls-9" d="M118.39 69.82c-.03-.21 22.77-.58 23.65-.41 5.19 1.04 3.71 7.85-.3 8.15-1.62.12-23.32-.89-23.32-.89 0-3.86.26-4.93-.04-6.85z"/><path class="cls-11" d="M141.3 78.01c-3.53 0-22.06-.86-22.9-.9l-.42-.02v-.42c0-1.47.04-2.54.07-3.4.05-1.39.08-2.23-.1-3.38l-.04-.23.17-.16c.49-.46 23.85-.55 24.05-.52 2.88.58 3.79 2.73 3.68 4.56-.13 2.03-1.58 4.29-4.03 4.47-.1 0-.26.01-.48.01zm-22.43-1.77c3.04.14 21.39.98 22.84.87 1.95-.14 3.1-1.98 3.21-3.64.12-1.88-.99-3.24-2.96-3.63-.94-.15-20.02.16-23.07.36.12 1.01.09 1.84.05 3.1-.03.77-.06 1.7-.07 2.95z"/><path class="cls-9" d="M102.12 38.28c-.17-.13 16.77-16.36 17.53-16.83 4.5-2.78 8.07 3.22 5.34 6.16-1.11 1.2-17.91 15.52-17.91 15.52-1.93-2.22-3.43-3.65-4.96-4.85z"/><path class="cls-11" d="M107.04 43.76l-.29-.33c-1.76-2.03-3.27-3.51-4.9-4.8l-.18-.14v-.23c.05-.68 17.58-17.08 17.76-17.19 2.5-1.55 4.64-.59 5.8.83 1.29 1.57 1.77 4.21.1 6.02-1.11 1.2-17.26 14.98-17.95 15.56l-.34.29zm-4.29-5.54c1.45 1.18 2.83 2.53 4.38 4.29 2.37-2.02 16.55-14.13 17.54-15.2 1.32-1.43.92-3.57-.14-4.85-1.2-1.45-2.93-1.69-4.65-.64-.81.55-14.98 14.13-17.13 16.39z"/><path class="cls-9" d="M117.53 64.07c-.04-.21 13.7-2.27 14.6-2.3 4.45-.15 5.09 7.08.57 7.45-1.62.13-14.32.37-14.32.37-.22-2.48-.41-3.41-.85-5.52z"/><path class="cls-11" d="M117.98 70.05l-.04-.41c-.22-2.41-.39-3.29-.84-5.47l-.04-.2.13-.17c.42-.53 14.8-2.46 14.93-2.46 2.54-.12 3.99 1.98 4.11 4.06.11 1.91-.94 4.06-3.49 4.27-1.62.13-13.83.36-14.34.37h-.41zm.07-5.67c.36 1.74.55 2.72.74 4.76 2.2-.04 12.45-.24 13.88-.36 1.97-.16 2.77-1.79 2.68-3.34-.09-1.6-1.14-3.32-3.2-3.22-.68.02-11.93 1.69-14.1 2.16z"/><path class="cls-9" d="M115.02 55.7c-.07-.2 3.26-1.26 5.24-2 2.9-1.09 4.38 3.44 1.28 4.37-1.61.48-5.04 1.7-5.04 1.7-.59-1.67-.96-2.59-1.48-4.08z"/><path class="cls-11" d="M116.23 60.34l-.15-.42c-.28-.79-.51-1.41-.73-2.01-.25-.66-.48-1.29-.75-2.07-.19-.55.14-.67 3.36-1.8.75-.26 1.51-.53 2.14-.76.95-.36 1.91-.21 2.62.4.77.66 1.14 1.78.92 2.78-.21.98-.93 1.72-1.98 2.03-1.58.47-4.98 1.69-5.02 1.7l-.42.15zm-.68-4.46c.22.63.42 1.17.63 1.73.18.49.37 1 .59 1.6.97-.34 3.36-1.18 4.64-1.56.74-.22 1.22-.71 1.36-1.37.15-.7-.11-1.47-.63-1.92-.33-.28-.9-.55-1.73-.24-.63.24-1.4.51-2.16.77-.94.33-2.18.76-2.7.99z"/><path class="cls-9" d="M113.09 51.7c-.1-.19 3.6-1.79 4.79-2.37 2.95-1.45 5.42 2.9 1.88 4.45-1.7.74-4.71 1.89-4.71 1.89-.44-1.11-1.15-2.37-1.96-3.96z"/><path class="cls-11" d="M114.8 56.23l-.16-.41c-.32-.8-.79-1.71-1.34-2.75-.19-.37-.4-.76-.61-1.17s-.09-.17-.09-.17l.06-.2c.1-.28.26-.41 3.5-1.9.61-.28 1.17-.54 1.52-.71 1.02-.5 2.11-.44 2.99.17.86.6 1.36 1.64 1.26 2.64-.06.61-.4 1.75-2.01 2.45-1.69.74-4.69 1.89-4.72 1.9l-.41.16zm-1.15-4.41c.15.29.3.57.44.84.47.9.89 1.7 1.21 2.43.88-.34 2.98-1.16 4.29-1.73.88-.38 1.4-.99 1.48-1.72.07-.69-.28-1.4-.88-1.82-.36-.25-1.1-.59-2.09-.1-.35.17-.91.43-1.54.72-.9.41-2.31 1.06-2.89 1.38z"/><path class="cls-9" d="M110.79 47.84c-.11-.18 6.85-4.5 7.98-5.19 3.04-1.85 6.08 3.15 2.82 4.78-1.46.73-8.57 4.11-8.57 4.11-1-1.93-1.18-1.93-2.22-3.71z"/><path class="cls-11" d="M112.82 52.14l-.2-.38c-.58-1.11-.87-1.56-1.24-2.12-.26-.39-.54-.83-.98-1.57-.25-.43-.36-.61 8.13-5.79.99-.6 2.12-.62 3.1-.05 1.1.64 1.84 1.94 1.8 3.16-.03 1.06-.62 1.93-1.65 2.45-1.45.72-8.51 4.08-8.58 4.12l-.39.18zm-1.46-4.21c.32.54.56.9.77 1.22.32.49.61.93 1.08 1.81 1.5-.72 6.94-3.3 8.18-3.93.93-.46 1.14-1.17 1.16-1.68.03-.91-.53-1.88-1.36-2.37-.49-.29-1.27-.51-2.19.05-1.7 1.04-6.52 4.05-7.65 4.89z"/><path class="cls-9" d="M107.23 43.1c-.14-.16 10.66-9.26 10.82-9.34 4.89-2.48 7.87 4.82 4.34 6.67-1.44.76-11.64 7.29-11.64 7.29-1.56-2.04-2.15-3.11-3.52-4.63z"/><path class="cls-11" d="M110.65 48.33l-.25-.33c-.59-.77-1.04-1.4-1.44-1.97-.68-.95-1.21-1.7-2.05-2.63l-.15-.16.04-.22c.04-.22.07-.36 5.52-5.01.05-.04 5.31-4.52 5.53-4.63 2.7-1.37 4.93-.02 5.94 1.92.97 1.87.88 4.45-1.19 5.54-1.41.74-11.5 7.21-11.6 7.27l-.35.22zm-2.82-5.23c.73.84 1.26 1.58 1.85 2.41.34.48.72 1.01 1.18 1.62 1.82-1.17 10.01-6.4 11.32-7.09 1.56-.82 1.59-2.85.81-4.34-.75-1.44-2.43-2.71-4.74-1.54-.45.33-8.89 7.47-10.43 8.94z"/><path class="cls-9" d="M116.58 59.81c-.06-.2 7.78-2.57 9.05-2.94 3.41-1 4.96 4.77 1.39 5.5-1.6.33-9.41 1.56-9.41 1.56-.39-1.45-.52-2.45-1.03-4.11z"/><path class="cls-11" d="M117.28 64.43l-.1-.39c-.16-.59-.27-1.1-.39-1.62-.17-.74-.34-1.5-.63-2.48l-.05-.18.09-.17c.18-.33 3.31-1.39 9.32-3.15 1.1-.32 2.14-.06 2.93.73.91.92 1.29 2.42.92 3.65-.32 1.05-1.12 1.76-2.25 1.99-1.59.33-9.11 1.51-9.43 1.56l-.4.06zm-.17-4.39c.25.85.4 1.53.55 2.19.09.39.17.78.28 1.2 1.61-.26 7.63-1.21 8.99-1.49 1.02-.21 1.42-.86 1.58-1.38.28-.91-.02-2.07-.7-2.76-.39-.39-1.06-.79-2.05-.5-1.91.56-7.33 2.22-8.65 2.74z"/><path class="cls-9" d="M97.69 34.86c-.18-.11 8.06-11.3 8.68-11.96 3.03-3.25 8.77 1.84 5.84 5.3-1.05 1.25-10 9.95-10 9.95-2.57-2.2-3.15-2.46-4.51-3.29z"/><path class="cls-11" d="M102.22 38.76l-.31-.26c-2.23-1.91-2.93-2.33-3.99-2.97l-.64-.39-.03-.21c-.09-.66 8.7-12.22 8.79-12.32 1.76-1.89 4.22-1.28 5.75.08 1.56 1.38 2.46 3.79.75 5.81-1.05 1.25-9.67 9.63-10.03 9.98l-.29.28zm-3.94-4.06l.1.06c1.04.63 1.75 1.06 3.8 2.79 1.54-1.51 8.76-8.55 9.68-9.64 1.32-1.56.58-3.46-.66-4.57-1.22-1.09-3.16-1.59-4.51-.14-.46.49-7.2 9.6-8.41 11.5z"/><path class="cls-9" d="M89.89 30.87c-.05-.02 1.49-3.33 2.36-5.26 1.28-2.82 5.53-.67 4 2.18-.79 1.48-2.4 4.9-2.4 4.9-1.67-.81-3.22-1.59-3.97-1.82z"/><path class="cls-11" d="M94.07 33.29l-.92-.45c-1.42-.69-2.76-1.35-3.39-1.54l-.19-.06-.08-.19q-.1-.23 1.54-3.82l.83-1.81c.42-.93 1.2-1.5 2.13-1.58 1.01-.08 2.06.45 2.62 1.31.54.84.56 1.87.04 2.84-.78 1.45-2.37 4.84-2.39 4.87l-.19.41zm-3.59-2.68c.74.29 1.84.83 3.07 1.43l.1.05c.45-.96 1.58-3.32 2.22-4.51.36-.68.36-1.37 0-1.93-.39-.6-1.11-.96-1.81-.91-.43.03-1.02.24-1.39 1.06l-.83 1.81c-.5 1.08-1.08 2.37-1.36 3z"/><path class="cls-9" d="M85.63 29.43c-.2-.06 1.43-3.96 1.85-5.22 1.06-3.12 5.88-1.79 4.47 1.81-.68 1.73-2.21 4.82-2.21 4.82-.96-.37-2.41-.93-4.11-1.41z"/><path class="cls-11" d="M89.96 31.4l-.38-.15c-.95-.37-2.38-.92-4.07-1.4l-.19-.05-.1-.19c-.13-.27-.12-.44 1.11-3.61.3-.78.59-1.51.73-1.94.37-1.08 1.18-1.81 2.23-2 1.04-.19 2.12.19 2.76.97.39.48.96 1.52.32 3.15-.68 1.73-2.17 4.73-2.23 4.85l-.18.36zm-3.83-2.29c1.35.4 2.52.83 3.39 1.17.42-.86 1.49-3.07 2.02-4.42.35-.89.29-1.69-.17-2.26-.44-.53-1.2-.79-1.91-.66-.43.08-1.19.37-1.55 1.41-.15.43-.44 1.18-.74 1.98-.35.9-.85 2.19-1.03 2.78z"/><path class="cls-9" d="M81.41 28.39c-.2-.04 1.8-8.23 2.11-9.52.83-3.46 6.39-2.08 5.24 1.38-.51 1.55-3.21 9.07-3.21 9.07-1.93-.48-2.33-.56-4.15-.93z"/><path class="cls-11" d="M85.84 29.85l-.39-.1c-1.73-.43-2.21-.53-3.64-.82l-.68-.14-.11-.17c-.15-.24-.24-.37 1.94-9.34l.12-.52c.27-1.13 1.05-1.95 2.13-2.23 1.21-.32 2.57.06 3.4.94.73.78.94 1.82.57 2.92-.51 1.54-3.18 9-3.21 9.08l-.14.38zm-3.97-1.81l.12.02c1.29.26 1.84.37 3.28.73.55-1.55 2.63-7.35 3.07-8.68.33-1-.02-1.66-.37-2.03-.6-.64-1.64-.92-2.52-.69-.77.2-1.3.77-1.49 1.58l-.12.52c-1.36 5.62-1.83 7.8-1.95 8.54z"/><path class="cls-9" d="M76.3 27.65c-.21-.02.54-14.32.59-14.49 1.69-5.22 8.66-2.23 7.49 1.58-.48 1.56-3.04 13.65-3.04 13.65-2.54-.34-3-.52-5.04-.74z"/><path class="cls-11" d="M81.68 28.89l-.41-.05a70.82 70.82 0 01-2.58-.39c-.74-.12-1.37-.23-2.44-.35l-.21-.02-.12-.18c-.34-.53.51-14.76.55-14.86.93-2.87 3.38-3.52 5.38-2.88 1.95.62 3.65 2.49 2.95 4.73-.47 1.52-3 13.49-3.03 13.61l-.09.4zm-4.98-1.64c.89.1 1.47.2 2.14.31.57.1 1.2.2 2.14.33.46-2.15 2.53-11.87 2.96-13.28.52-1.7-.83-3.13-2.37-3.62-1.47-.47-3.47-.14-4.27 2.31-.06.54-.64 11.88-.61 13.95z"/><path class="cls-9" d="M93.86 32.69c-.19-.1 3.81-7.48 4.44-8.65 1.7-3.13 6.88-.14 4.88 2.9-.9 1.36-5.57 7.93-5.57 7.93-1.41-.89-2.11-1.3-3.74-2.19z"/><path class="cls-11" d="M97.72 35.48l-.36-.22c-1.36-.86-2.06-1.27-3.72-2.17-.49-.27-.59-.32 4.26-9.25.55-1.01 1.46-1.56 2.58-1.56 1.3 0 2.63.79 3.23 1.92.52.97.46 2.03-.18 3-.89 1.35-5.39 7.68-5.58 7.95l-.24.34zm-3.33-3c1.31.72 2.01 1.13 3.09 1.8.97-1.37 4.56-6.42 5.32-7.58.57-.87.39-1.62.14-2.09-.45-.84-1.48-1.45-2.45-1.45-.55 0-1.3.19-1.8 1.1-1.58 2.91-3.79 7.07-4.3 8.22z"/><path class="cls-9" d="M47.84 111.43c.18.11-8.01 11.29-8.62 11.95-3.03 3.25-8.61-1.39-5.68-4.85 1.05-1.24 10.19-10.06 10.19-10.06 2.57 2.2 2.75 2.13 4.11 2.96z"/><path class="cls-11" d="M36.77 124.92c-1.09 0-2.18-.46-3-1.2-1.43-1.27-2.22-3.53-.56-5.49 1.05-1.25 9.84-9.73 10.22-10.09l.29-.28.31.26c2.03 1.74 2.53 2.03 3.35 2.51.21.12.43.25.7.42l.18.11.03.21c.09.68-8.65 12.21-8.74 12.31-.82.88-1.8 1.25-2.78 1.25zm6.98-15.86c-1.56 1.51-8.94 8.66-9.87 9.75-1.28 1.51-.68 3.22.47 4.25 1.2 1.07 3.13 1.52 4.54.01.46-.49 7.15-9.58 8.36-11.48-.12-.07-.23-.13-.33-.19-.79-.46-1.33-.77-3.17-2.34z"/><path class="cls-9" d="M55.6 115.54c.2.07-1.41 3.2-2.28 5.12-1.28 2.82-5.53.67-4-2.18.79-1.48 2.35-4.77 2.35-4.77 1.76.79 2.54 1.31 3.93 1.83z"/><path class="cls-11" d="M51.4 122.43c-.95 0-1.9-.51-2.43-1.32-.54-.84-.56-1.87-.04-2.84.78-1.45 2.32-4.72 2.34-4.75l.19-.39.4.18c.75.33 1.32.62 1.83.88.69.35 1.29.64 2.07.94l.18.07.09.2c.12.29.04.55-1.33 3.4-.34.71-.69 1.44-.97 2.05-.42.93-1.2 1.5-2.13 1.58h-.2zm.49-8.13c-.44.92-1.54 3.21-2.17 4.4-.36.68-.36 1.36 0 1.93.39.6 1.12.95 1.81.91.43-.03 1.02-.24 1.39-1.06.28-.61.63-1.35.98-2.07.43-.89.98-2.04 1.19-2.59-.66-.26-1.19-.53-1.8-.84-.41-.21-.86-.43-1.4-.68z"/><path class="cls-9" d="M59.8 117c.2.05-1.28 3.81-1.7 5.07-1.06 3.12-5.88 1.79-4.47-1.81.68-1.73 2.04-4.68 2.04-4.68 1.1.47 2.37.96 4.14 1.42z"/><path class="cls-11" d="M55.75 124.26c-.86 0-1.7-.37-2.23-1.02-.39-.48-.95-1.52-.32-3.15.68-1.72 2.03-4.68 2.05-4.71l.18-.39.4.17c1.01.43 2.28.93 4.08 1.4l.19.05.1.19c.14.27.13.46-1.12 3.83-.23.63-.45 1.21-.57 1.57-.37 1.08-1.18 1.81-2.23 2-.18.03-.35.05-.53.05zm.13-8.11c-.39.86-1.33 2.94-1.85 4.27-.35.89-.29 1.69.17 2.26.44.53 1.19.8 1.91.66.43-.08 1.19-.37 1.55-1.41.12-.37.34-.95.58-1.6.34-.92.87-2.36 1.06-3-1.43-.39-2.53-.8-3.42-1.17z"/><path class="cls-9" d="M64.15 118.09c.2.05-1.65 8.02-1.96 9.31-.83 3.46-6.52 2.08-5.37-1.38.51-1.55 3.14-8.98 3.14-8.98 2 .67 2.2.52 4.19 1.04z"/><path class="cls-11" d="M59.58 129.85c-.98 0-1.98-.39-2.62-1.07-.73-.78-.93-1.8-.57-2.9.51-1.53 3.11-8.91 3.14-8.98l.15-.41.42.14c1.16.39 1.69.49 2.36.62.47.09.99.19 1.81.41.49.13.68.18-1.64 9.85-.27 1.13-1.05 1.94-2.15 2.23-.29.08-.59.11-.89.11zm.64-12.25c-.56 1.58-2.55 7.24-2.99 8.56-.33.98.02 1.63.37 2.01.62.66 1.71.96 2.63.71.55-.15 1.26-.54 1.51-1.58.52-2.19 1.73-7.52 1.93-8.87-.6-.15-1.03-.23-1.41-.31-.59-.12-1.11-.22-2.05-.52z"/><path class="cls-9" d="M69.4 118.8c.21.01-.35 14.2-.41 14.37-1.69 5.22-8.97 2.17-7.79-1.64.48-1.56 3.05-13.39 3.05-13.39 2.54.34 3.11.56 5.15.66z"/><path class="cls-11" d="M65.39 136.39c-.52 0-1.03-.08-1.53-.24-2.01-.64-3.77-2.52-3.08-4.75.47-1.52 3.01-13.23 3.04-13.35l.09-.4.41.05c.92.12 1.59.23 2.16.32 1.01.16 1.68.27 2.96.33s.22.01.22.01l.13.19c.37.53-.32 14.65-.36 14.76-.72 2.2-2.36 3.09-4.02 3.09zm-.79-17.76c-.46 2.12-2.53 11.61-2.97 13.02-.52 1.69.9 3.14 2.5 3.64 1.55.49 3.64.19 4.44-2.27.06-.53.49-11.7.43-13.81-1.1-.07-1.77-.18-2.68-.32-.48-.08-1.02-.16-1.73-.26z"/><path class="cls-9" d="M51.58 113.75c.18.1-3.67 7.33-4.3 8.49-1.7 3.12-6.88.14-4.88-2.9.9-1.36 5.47-7.76 5.47-7.76 1.3.75 2.22 1.33 3.71 2.17z"/><path class="cls-11" d="M45.1 124.01c-1.3 0-2.63-.79-3.23-1.92-.52-.97-.46-2.03.18-3 .89-1.35 5.29-7.51 5.48-7.78l.23-.33.35.2c.53.31 1 .58 1.47.86.68.4 1.36.81 2.24 1.31.44.25.62.35-4.13 9.09-.55 1.01-1.46 1.56-2.58 1.56zm2.91-11.85c-.95 1.33-4.46 6.25-5.22 7.42-.57.87-.39 1.62-.14 2.09.45.84 1.48 1.45 2.45 1.45.55 0 1.3-.19 1.79-1.09.95-1.75 3.61-6.78 4.16-8.07-.74-.42-1.34-.78-1.95-1.14-.36-.21-.72-.43-1.11-.66z"/><path class="cls-9" d="M111.38 97.94c.11-.18 11.31 8.33 11.97 8.95 3.23 3.06-1.67 8.64-5.11 5.68-1.24-1.06-10.19-10.04-10.19-10.04 1.32-1.69 2.49-3.24 3.33-4.59z"/><path class="cls-11" d="M120.38 113.86c-.81 0-1.65-.28-2.43-.95-1.23-1.06-9.85-9.7-10.21-10.06l-.28-.28.24-.31c1.13-1.45 2.42-3.13 3.31-4.56s.11-.18.11-.18l.21-.03h.01c.77 0 12.21 8.98 12.31 9.08 1.82 1.72 1.35 4.2-.06 5.75-.81.89-1.98 1.54-3.22 1.54zm-11.74-11.37c1.52 1.52 8.8 8.8 9.89 9.74 1.53 1.32 3.32.69 4.41-.52 1.08-1.19 1.57-3.11.11-4.51-.5-.48-9.64-7.44-11.51-8.69-.82 1.27-1.86 2.64-2.89 3.97z"/><path class="cls-9" d="M115.24 90.31s3.61 1.57 5.52 2.46c2.81 1.3.62 5.54-2.21 3.98-1.47-.81-5.05-2.55-5.05-2.55 1-1.89 1.19-2.41 1.74-3.89z"/><path class="cls-11" d="M119.78 97.53c-.48 0-.97-.13-1.45-.39-1.44-.79-5-2.52-5.03-2.54l-.41-.2.21-.41c.96-1.82 1.15-2.34 1.68-3.73l.11-.29.18-.07c.18-.07.3-.12 5.88 2.47.93.43 1.49 1.21 1.56 2.15.07 1.01-.47 2.06-1.33 2.61-.43.27-.9.41-1.39.41zM114.1 94c.99.48 3.48 1.71 4.66 2.36.68.37 1.36.38 1.93.01.6-.38.97-1.11.93-1.8-.03-.43-.23-1.03-1.04-1.4-1.55-.72-4.11-1.86-5.08-2.28-.4 1.08-.65 1.69-1.39 3.11z"/><path class="cls-9" d="M116.72 85.93s4.24 1.64 5.49 2.07c3.1 1.08 1.74 5.9-1.85 4.46-1.72-.69-5.16-2.2-5.16-2.2.48-1.1.96-2.52 1.52-4.34z"/><path class="cls-11" d="M121.63 93.18c-.41 0-.89-.08-1.43-.3-1.71-.69-5.14-2.19-5.17-2.2l-.41-.18.18-.41c.44-1.01.9-2.33 1.5-4.29l.06-.19.18-.08q.2-.09 2.5.79c1.24.48 2.68 1.04 3.33 1.26 1.08.38 1.8 1.2 1.98 2.25.18 1.04-.21 2.12-.99 2.75-.32.26-.89.59-1.71.59zm-5.85-3.14c.96.42 3.39 1.47 4.74 2.01.89.36 1.69.3 2.26-.15.54-.44.8-1.18.68-1.91-.07-.43-.35-1.2-1.4-1.56-.65-.23-2.11-.79-3.36-1.27-.61-.24-1.28-.49-1.7-.65-.47 1.51-.86 2.63-1.23 3.53z"/><path class="cls-9" d="M117.83 81.64c.05-.2 8.46 2 9.75 2.32 3.45.86 2.02 6.54-1.43 5.36-1.54-.53-9.44-3.42-9.44-3.42.59-1.85.58-2.27 1.11-4.26z"/><path class="cls-11" d="M127.07 89.92c-.34 0-.7-.06-1.06-.18-1.53-.52-9.37-3.4-9.45-3.43l-.4-.15.13-.41c.35-1.08.48-1.65.64-2.37.11-.5.24-1.05.46-1.87q.16-.58 9.12 1.71l1.16.3c1.12.28 1.93 1.07 2.21 2.17.32 1.23-.09 2.67-.99 3.5-.52.48-1.15.73-1.84.73zm-9.8-4.3c1.62.59 7.71 2.82 9.03 3.27.98.33 1.63 0 2.01-.36.67-.62.97-1.7.73-2.63-.14-.55-.53-1.26-1.57-1.52l-1.17-.3c-1.95-.5-6.83-1.75-8.14-1.99-.16.62-.27 1.07-.36 1.49-.14.62-.27 1.17-.53 2.03z"/><path class="cls-9" d="M118.42 76.67c.01-.21 14.95.68 15.12.74 5.2 1.74 1.96 8.78-1.84 7.56-1.55-.49-13.94-3.53-13.94-3.53.36-2.54.55-2.74.67-4.78z"/><path class="cls-11" d="M132.58 85.56c-.33 0-.67-.05-1.02-.16-1.52-.48-13.79-3.49-13.91-3.52l-.39-.1.06-.4c.14-.98.25-1.62.35-2.14.15-.82.25-1.37.32-2.6v-.22l.2-.13c.54-.36 15.39.66 15.5.69 2.81.94 3.42 3.37 2.77 5.36-.56 1.73-2.08 3.21-3.87 3.21zm-14.33-4.45c2.16.53 12.17 2.99 13.58 3.44 1.68.53 3.23-.84 3.77-2.48.5-1.53.18-3.45-2.2-4.24-.7-.09-12.41-.75-14.56-.75-.07 1.02-.17 1.55-.3 2.32-.08.44-.17.96-.28 1.71z"/><path class="cls-9" d="M113.46 94.23c.11-.18 7.66 3.94 8.82 4.59 3.11 1.73.08 6.88-2.94 4.85-1.35-.91-7.95-5.73-7.95-5.73.76-1.29 1.15-2.26 2.08-3.71z"/><path class="cls-11" d="M120.77 104.58c-.57 0-1.14-.18-1.68-.54-1.35-.9-7.7-5.54-7.97-5.74l-.33-.24.21-.35c.31-.53.56-1 .81-1.48.35-.68.72-1.38 1.27-2.24.26-.4.38-.58 9.41 4.44 1 .56 1.55 1.48 1.54 2.6-.01 1.3-.81 2.62-1.95 3.22-.43.23-.87.34-1.32.34zm-8.8-6.77c1.34.98 6.46 4.71 7.62 5.49.87.58 1.62.41 2.09.16.84-.44 1.46-1.47 1.47-2.44 0-.55-.18-1.31-1.08-1.81-1.77-.99-7.11-3.87-8.41-4.45-.43.7-.75 1.3-1.05 1.89-.2.38-.4.76-.63 1.17zm1.49-3.58l.05.03-.05-.03z"/><path class="cls-9" d="M34.65 48.25c-.11.18-11.17-8.11-11.82-8.73-3.23-3.06 1.83-8.73 5.27-5.77 1.24 1.06 9.89 9.94 9.89 9.94-2.22 2.55-2.49 3.2-3.33 4.56z"/><path class="cls-11" d="M34.69 48.7c-.75 0-12.07-8.76-12.17-8.86-1.8-1.71-1.31-4.19.11-5.76 1.37-1.52 3.76-2.38 5.75-.66 1.24 1.06 9.56 9.61 9.92 9.97l.29.29-.27.31c-1.84 2.12-2.32 2.9-2.92 3.9l-.48.78-.21.03h-.01zm-8.73-15.32c-1.01 0-1.99.55-2.67 1.3-1.1 1.21-1.61 3.14-.16 4.52.49.46 9.48 7.23 11.36 8.46l.15-.24c.59-.98 1.07-1.76 2.74-3.71-1.51-1.54-8.49-8.69-9.57-9.62-.59-.51-1.22-.72-1.85-.72z"/><path class="cls-9" d="M30.5 56.22c-.07.2-3.09-1.39-5.01-2.28-2.81-1.3-.62-5.54 2.21-3.98 1.47.81 4.68 2.37 4.68 2.37-.7 1.56-1.36 2.37-1.89 3.89z"/><path class="cls-11" d="M30.46 56.68c-.3 0-.89-.27-3.15-1.37-.7-.34-1.41-.69-2.01-.97-.93-.43-1.49-1.21-1.56-2.15-.07-1.01.47-2.06 1.33-2.61.84-.54 1.87-.54 2.84-.02 1.45.79 4.63 2.34 4.67 2.36l.39.19-.18.39c-.3.66-.58 1.18-.86 1.68-.37.68-.72 1.32-1.02 2.17l-.07.19-.2.09c-.06.02-.12.04-.19.04zm-3.99-6.62c-.32 0-.63.09-.91.27-.6.38-.97 1.11-.93 1.8.03.43.23 1.03 1.04 1.4.61.28 1.33.63 2.03.98.86.42 1.97.96 2.51 1.18.29-.74.61-1.32.94-1.93.21-.38.42-.78.64-1.23-.91-.44-3.15-1.55-4.31-2.19-.34-.19-.69-.28-1.02-.28z"/><path class="cls-9" d="M28.98 60.44c-.03.1-3.69-1.31-4.94-1.74-3.11-1.08-1.74-5.9 1.85-4.46 1.72.69 4.53 1.98 4.53 1.98-.48 1.1-.85 2.11-1.44 4.22z"/><path class="cls-11" d="M28.99 60.89c-.25 0-.86-.22-3.32-1.13-.71-.26-1.37-.51-1.78-.65-1.08-.38-1.8-1.2-1.98-2.25-.18-1.04.21-2.12.99-2.75.48-.39 1.53-.94 3.15-.29 1.71.69 4.52 1.97 4.55 1.98l.4.18-.18.4c-.46 1.06-.83 2.04-1.42 4.17l-.05.19-.18.09c-.06.03-.1.05-.19.05zm-4.37-6.47c-.44 0-.84.13-1.16.39-.54.44-.8 1.18-.68 1.91.07.43.35 1.2 1.4 1.56.41.14 1.08.39 1.79.66.87.32 2.08.77 2.69.97.47-1.64.8-2.57 1.17-3.46-.83-.38-2.81-1.26-4.12-1.79-.39-.16-.76-.23-1.1-.23z"/><path class="cls-9" d="M27.87 64.89c-.06.2-7.91-1.82-9.2-2.14-3.45-.86-2.02-6.54 1.43-5.36 1.54.53 8.88 3.16 8.88 3.16-.86 2.4-.57 2.35-1.11 4.34z"/><path class="cls-11" d="M27.83 65.33c-.72 0-2.71-.49-8.52-1.96l-.75-.19c-1.13-.28-1.93-1.07-2.21-2.17-.31-1.23.09-2.67.99-3.5.78-.72 1.81-.92 2.9-.55 1.53.52 8.82 3.14 8.89 3.17l.42.15-.15.42c-.51 1.42-.6 1.94-.72 2.6-.08.43-.17.91-.38 1.71-.05.19-.09.32-.46.32zm-8.65-7.66c-.57 0-.98.25-1.24.49-.67.62-.97 1.7-.73 2.63.14.55.53 1.26 1.57 1.52l.76.19c4.43 1.12 7.11 1.76 8 1.91.14-.56.21-.93.27-1.29.11-.6.21-1.13.61-2.31-1.57-.56-7.15-2.57-8.46-3.01-.28-.1-.54-.14-.77-.14z"/><path class="cls-9" d="M27.28 70.04c-.01.21-14.56-.54-14.73-.6-5.2-1.74-2.1-8.98 1.71-7.77 1.55.49 13.51 3.37 13.51 3.37-.36 2.54-.36 2.96-.48 5z"/><path class="cls-11" d="M26.15 70.5c-3.72 0-13.66-.61-13.75-.64-2.87-.96-3.48-3.49-2.79-5.58.65-2 2.56-3.75 4.78-3.04 1.52.48 13.36 3.33 13.48 3.36l.39.09-.06.4c-.32 2.3-.36 2.84-.45 4.46l-.04.72-.19.13c-.09.06-.6.09-1.37.09zm-12.76-8.52c-1.36 0-2.49 1.22-2.94 2.58-.5 1.54-.22 3.64 2.23 4.46.67.08 12.09.62 14.17.61v-.12c.1-1.55.13-2.13.41-4.14-2.11-.51-11.74-2.83-13.15-3.28-.25-.08-.49-.12-.73-.12z"/><path class="cls-9" d="M32.42 52.26c-.09.19-7.29-3.73-8.45-4.38-3.11-1.73-.02-7 3.01-4.97 1.35.91 7.67 5.41 7.67 5.41-.76 1.29-1.5 2.39-2.23 3.94z"/><path class="cls-11" d="M32.48 52.7c-.26 0-1.41-.36-8.73-4.43-.99-.55-1.54-1.47-1.52-2.6.01-1.34.84-2.71 2.01-3.33.97-.51 2.03-.44 2.98.2 1.34.9 7.42 5.23 7.68 5.42l.33.24-.21.35c-.19.32-.38.64-.57.95-.57.93-1.1 1.82-1.64 2.96s-.08.18-.08.18l-.19.06s-.03.01-.07.01zm-6.91-9.8c-.36 0-.67.11-.91.24-.88.46-1.53 1.54-1.54 2.55 0 .55.17 1.31 1.07 1.81 1.67.93 6.67 3.63 8 4.22.5-1.02 1.02-1.87 1.51-2.69.12-.19.24-.39.35-.59-1.32-.94-6.17-4.39-7.33-5.16-.42-.28-.81-.38-1.16-.38z"/><path class="cls-11" d="M72.66 116.89c-24 0-43.52-19.52-43.52-43.52s19.52-43.52 43.52-43.52 43.52 19.52 43.52 43.52-19.52 43.52-43.52 43.52zm0-86.16c-23.51 0-42.63 19.12-42.63 42.63s19.12 42.63 42.63 42.63 42.63-19.12 42.63-42.63-19.12-42.63-42.63-42.63z"/><path class="cls-6" d="M62.65 54.73c3.53 3.26 8.17 8.52 5.66 18.01 0 0-6.5-1.78-6.13-6.52.17-2.23 1.76-7.41.46-11.49z"/><path class="cls-10" d="M62.77 66.15c0 4.08 4.59 6.03 4.62 5.93 2.45-8.82-1.7-13.63-4.05-15.71 1.13 4.3-.57 8.08-.57 9.78z"/><path class="cls-6" d="M75.63 46.97c1.26 2.12 2.46 4.87 2.09 7.2-.52 3.26-1.47 7.75-4.89 7.51-4.04-.28-2.36-6.58-1.69-7.55 1.17-1.69 1.86-7.63 1.5-10.72l-.08-.68s1.81 2.09 3.07 4.23z"/><path class="cls-10" d="M75.27 47.18c-.81-1.37-1.66-2.51-2.16-3.13.15 3.12-.14 8.36-1.3 10.16-.67 1.04-2.39 6.81 1.05 7.05 2.95.21 3.9-3.71 4.45-7.16.34-2.18-.79-4.81-2.04-6.93z"/><path class="cls-6" d="M66.7 49.1c.97-1.35 1.65-2.38 2.83-3.53-.39 3.26.76 6.2 2.51 9.09 1.93 3.19 11.87 31.17.83 30.3-3.27-.26-6.36-8-6.61-13.1.7-4.82.7-5.48 1.11-7.19.89-3.11-2.42-7.27-2.52-8.82-.14-2.23.5-4.85 1.85-6.74z"/><path class="cls-10" d="M65.59 54.88c-.07 2 3.33 6.6 2.3 9.93-1.71 8.37-3.04 18.23 4.3 19.86 4.12.91 4.33-8.22 3.26-15.93-.95-6.86-2.92-12.26-3.92-13.5-1.77-2.2-2.74-5.51-2.55-8.52-1.27 1.35-3.26 4.68-3.39 8.17z"/><path class="cls-6" d="M77.65 50.44c.97-1.35 2.01-2.54 3.19-3.69-.39 3.26.8 6.68 2.02 9.83 1.17 3.02 1.48 7.78-3.56 12.67-1.95 4.97.32 14.9-5.26 15.72-1.78.26-4.52-2.97-4.22-8.6.66-6.21 6.34-15.75 6.22-17.56-.14-2.23.26-6.47 1.61-8.37z"/><path class="cls-10" d="M76.78 59.48c.24 1.84-5.26 8.82-6.08 16.08-.75 6.72 2.01 9 3.56 8.89 1.77-.12 2.82-5.41 4.52-13.34 4-7.56 4.74-8.82 3.71-13.63-.63-2.91-2.3-3.71-2.19-9.58-2.77 2.32-4.03 7.58-3.52 11.58z"/><path class="cls-6" d="M74.76 59.35c.85-1.31 3.12-3.52 4.3-4.67-.39 3.26.9 7.5 1.85 10.75 3.02 10.25-1.17 19.76-6.91 19.55-.07 0 6.02-3.17-.57-17.55-.93-2.03-.3-5.56 1.33-8.08z"/><path class="cls-10" d="M74.11 64.29c-.22 3.7 3.23 9.4 3.33 14.15.1 4.54-2.16 5.81-2 5.78 4.67-.74 7.41-10.45 5.19-17.93-.83-2.79-2.22-7.11-1.93-10.67-3.33 2.59-4.48 6.75-4.59 8.67z"/><path class="cls-6" d="M64.27 70.42c2.4.7 3.7 1.15 4.24 6.46.37 3.66 1.53 6.57 4.3 8.05 0 0-5.89 1.07-7.6-6.18-.54-2.28.1-5.91-.95-8.33z"/><path class="cls-10" d="M65.87 79.2c.94 3.87 4.67 4.79 4.59 4.72-2.31-2.04-2.42-4.08-2.62-5.43-.39-2.57.82-5.86-2.88-7.18 1.23 2.19.06 4.43.91 7.9z"/><path class="cls-6" d="M65.22 71.28s.05.08.16.15c.21.08.47.19.47.17 0-1 .26-2.58.11-3.85-.18-1.53-.04-2-1.09-4.24.41 2.54.07 3.29.06 4.47 0 .99.17 1.73.3 3.32zm13.26-3.58c.49 1.47 1.31 4.16 1.11 6.45-.3 3.46-1.16 5.65-1.11 5.71.07.07.26-4.13 0-6.97-.21-2.37-1.2-4.38-1.35-4.98-.64-2.46-.76-5.28.46-9.03-.33 4.56 0 6.15.89 8.82zm3.3-9.26c.04 1.89.26 1-.48 4-.02.1-.19-2.82-1.15-4.67-.37-.96-1.33-2.63-.78-6.6.63 4.67 2.22 5.11 2.41 7.26zM70.4 59.81c.59 1.48 1.22 3.59.89 5.52.11 2.15-2.26 6.78-2.59 6.71-.1-.02 2.21-5.45 1.56-8.23-.54-2.32-.8-3.21-1.04-3.78-.98-2.35-1.88-5.15-1.19-9.03.31 4.56 1.34 6.19 2.38 8.8zm-3.2 21.2c.58.97.19.59 1.51 1.88.04.04-.99-1.38-1.09-2.63-.12-.61.03-1.86-1.5-3.7 1.16 2.57.49 3.3 1.08 4.45zm7.17-11.71c-1.04 1.88-2.7 7.92-2.37 8 .1.02 1.71-5.2 2.93-6.45-.03.1-.56-1.52-.56-1.56zm1.15 3.15c-1.74 2.96-2.67 8.33-2.33 8.41.1.02 1-5.34 2.78-6.93-.03.1-.44-1.44-.44-1.48zm-2-14.31c1.67-1.62 1.45-9.26 1.11-9.3-.1-.01.7 2.59-1.78 7.63.02-.1.66 1.63.67 1.67z"/><path class="cls-2" d="M46.65 62.88c-.01-.6 0-.55.11-1.18.23-1.39.43-2.38.82-3.71l.21.86c.27.77.58 1.19.64.89.45-1.98 1.8-4.71 2.45-5.71 0 0-.19.79.22 2.26.42 1.49 1.26 2.89 1.65 5.35.35-.39 1.39-1.56 1.94-1.89 0 0-.25 1.48-.25 2.43 0 1.55.19 2.04.67 3.93 0 0 .76-.56 1.13-1.52.17-.44.27-1.14.27-1.14 1.3 3.11.04 7.6 1.25 8.3.05.03.07.03.07.03.38-.27 1.01-1.6 1.01-1.6s1.25 8.11 1.32 9.08c.7-.53 1-1.92 1.2-2.75 0 0 1.84 5.8 1.82 9.13-.05 7.56-1.63 7.95-.4 11.41.86 2.41 4.55 3.97 4.47 3.97-2.6.06-1.67 1.67-1.67 1.67-2.53-1.54-6.08-4.24-7.94-6.23-1.55-1.66-5.43-3.14-7.7-3.55.41-.07 1.21-.26 1.7-.59 0 0-3.4-1.95-4.83-3.66-.89-1.07-1.62-2.79-1.62-2.79.81.33.89.52 1.41.59 0 0-1.27-2.03-1.81-3.45-.73-1.89-1.08-5.08-1.08-5.08.67 1 1.07 1.41 1.07 1.41s-.52-3.07.37-5.81c0 0 1.65 5.09 1.98 5.85.4.94 1.09 2.35 1.9 2.44.39.05 1.04 0 1.53-1.88 0 0 1.33 5.72 1.74 6.58 0 0 .43-.75.52-1.33 0 0 1.59 3.46 2.63 5.33 1.68 3.01 2.6 4.17 3.63 5.04 0 0-3.04-5.44-4.15-7.88-.02-.04.44.11.45.14-.74-2.09-2.41-5.48-3.05-6.82-.55-1.15-.58-1.34-.52-1.48 0 0 1-.85 1.52-.59l.15.74c.44 1.37 1.02 2.31 1.67 3.8.46 1.05.89 1.94 1.21 2.79.06.11.22-.28.24-.18 2.22 5.91 2.96 6.28 3.57 7.9.11-.85.22-4.94-2.31-8.86-2.11-3.27-3.92-5.72-5.08-9.18-.54-1.63-1.96-3.5-3.26-5.03-.47-.55-1.7-1.12-2.11-1.61-1.78-2.07-1.7-6.97-1.7-6.97.53.3.68.43.97.7l-.05-.15z"/><path class="cls-13" d="M48.91 70.23c.21.32.84.2 1.52.98-.26.96 3.11-.06 2.93.61-.37 1.33 1.53 1.51 1.04 2.49-1.74 3.45 1.61 7.12 3.93 10.66 3.27 5.01 2.18 9.8 2.18 9.8s-.68.34-4-7.91c-.07-.17-.04.4-.11.22-.38-.96-1.08-2.46-1.63-3.67-.62-1.36-1.01-2.06-1.52-3.37-.11-.29-.23-.99-.41-1.07-.34-.15-.88.01-.74.47.3.96.43 1.12.96 2.19 1.11 2.22 1.93 4.24 2.89 6.52.12.28-.49-.2-.37.07 2.15 4.37 4.59 8.37 4.59 8.37-2.44-1.19-3.51-2.83-5.1-5.98-.75-1.29-1.68-3.11-2.17-4.4l-.64.84s-.49-.77-.89-2.4c-.22-.9-.67-2.47-.89-3.58 0 0-.27 1.12-1.31 1.09-1.36-.05-2.15-2.17-2.15-2.17-1.09-2.77-1.73-4.52-1.88-5.53.07.51-.2 2.19-.1 3.43.15 1.8.2 2.48.2 2.48-.22-.18-.92-.85-.93-.92.59 4.48 3.22 7.67 3.22 7.67-.19 0-1.5-.25-1.61-.48 1.7 3.41 6.54 5.59 6.54 5.59-.06.05-.78.67-1.3.63 2.17.47 5.39 1.72 6.89 3.33 2.09 2.25 4.15 3.63 6.82 5.48 0 0-.07-1.15 1.07-.93.03 0-2.72-1.24-3.42-3.02-.99-2.52-.67-4.03-.44-5.63.74-5.19 1.14-6.67-.76-13.99.17.65-1.26 2.04-1.3 2.11-.26.49-1.21-6.95-1.48-8.74-.22.56-.89 1.04-.89 1.04-1.7-1.48-.48-5.45-1.19-7.48l-.37.59c-.37.59-1.19 1.11-1.19 1.11-.22-.22-.61-1.52-.67-1.78-.31-1.54-.45-2.29-.07-4.22-.71.52-1.57 1.87-1.57 1.87-.07-.07-.33-1.46-.89-3.24-.38-1.22-1.08-2.31-1.26-3.75.02.2-.49.94-.99 2.15-.33.8-.62 1.83-.85 2.67-.01.05-.78-.3-.96-1.11-.03-.11-.7 3.67-.67 4.45 0 0-.46-.48-.88-.72 0 0 .32 4.66 1.58 5.88l1.22 1.3z"/><path class="cls-7" d="M49.32 84c.41.22.94-.47.94-.47.67 4.04 2.45 6 2.45 6 .41-.52.35-1.38.35-1.38 1.48 2.96 3.36 6.03 3.36 6.03-1.56-1.26-3.38-1.35-3.38-1.35.59-.18.74-.37.74-.37s-4.35-2.94-4.26-3.11c0 0 .95.28.82.15-2.37-2.3-4.56-7.67-4.56-7.67s.71 1.02 1.21 1.04c0 0-.94-1.41-1.09-4 0 0 1.2 3.95 3.43 5.14zm0-23.3s-.19 3.18-.08 4.27c.04.36-1.08-.85-1.07-.82.81 5.71 5.84 9.38 6.37 11.16.63 2.07 1.48 4.55 3.56 6.92 3.16 3.61 3.3 8.63 3.3 8.63.26-3.67.15-5.45-.74-10.41 0 0-.9 1.57-1.07 1.63-.33.12-3.04-8.27-3.04-8.27s-.26.95-.78 1.09c0 0-1.15-3.09-.37-7.43-.09-.24-1.61 3.49-1.71 3.23-.42-1.1-.67-2.48-.78-4.34-.04-.66-.07-2.19.15-3.26-.13.63-1.48 2.15-1.48 2.15-1-.52-2-3.89-2.26-4.56z"/><path class="cls-11" d="M53.78 74.72c.19.15.04.43.04.43s-.06-.35-.39-.46c-.04-.02.24-.06.35.03zm.26 2.28c-.05.23-.37.23-.37.23s.29-.21.25-.56c0-.05.16.2.12.33zm18.84 27.89L52.87 51.78c-.47-1.25-.72-1.91-.82-2.26s-.21-.22-.21-.22l.18-.25c6.22-5.43 12.91-7.97 21.07-7.97S88.03 43.67 94.1 49q.23.2-10.38 27.79c-5.27 13.7-10.55 27.38-10.55 27.38l-.28.72zm-20.3-55.55c.99 2.63 17.93 47.59 20.31 53.89 7.03-18.21 19.77-51.27 20.67-53.91-5.92-5.14-12.62-7.64-20.47-7.64s-14.44 2.44-20.5 7.67z"/><path class="cls-12" d="M53.2 69.99c.36 1.39-.84 2.89-2.67 3.36-1.83.47-3.6-.28-3.96-1.66-.36-1.39.84-2.89 2.67-3.36 1.83-.47 3.6.28 3.96 1.66z"/><path class="cls-5" d="M49.04 75.11c-.83-.78-3.44-1.29-3.44-1.29 1-.17 2.04.13 2.03.12-.37-.56-2.44-.76-2.43-.78.01-.15 1.58 0 1.58 0s-2.65-1.04-2.84-1.4c0 0 2.9 1.24 2.39.52-.24-.33-.34-1-.33-1.5 0 0 .68 1.78 1.83 2.09.43.11-2.4-2.43-1.87-3.78 0 0 .68 2.53 2.44 2.99.37.1-1.49-.87-1.25-2.31 0-.01.34 1.69 1.94 1.83.05 0-1.83-2.51-1.16-3.59 0 0-.11 1.94 2.47 4.36.32.3 2.56 1.33 2.39 1.35-3.41.45-3.77 1.38-3.77 1.38z"/><path class="cls-5" d="M52.77 74.12c.35-1.09 2.48-2.84 2.48-2.84-1.01.36-1.8 1.14-1.8 1.12.05-.67 1.84-1.88 1.83-1.89-.09-.12-1.45.8-1.45.8s1.89-2.22 1.88-2.63c0 0-2.02 2.52-1.92 1.65.04-.4-.21-1.03-.48-1.46 0 0 .3 1.87-.6 2.71-.33.31.94-3.29-.25-4.18 0 0 .7 2.52-.68 3.79-.29.27.91-1.49-.05-2.61 0 0 .57 1.62-.83 2.55-.04.03.38-3.08-.8-3.66 0 0 1.11 1.61 0 4.98-.14.42-1.63 2.35-1.47 2.28 3.32-1.28 4.14-.63 4.14-.63z"/><path class="cls-13" d="M51.32 71.83l.59.5.72-.3.4.65.77-.07.18.75.76.16-.07.76.67.39-.31.7.52.57-.52.57.31.7-.67.39.07.75-.76.17-.18.74-.77-.07-.4.66-.72-.3-.59.5-.59-.5-.71.3-.4-.66-.78.07-.17-.74-.77-.17.08-.75-.68-.39.31-.7-.51-.57.51-.57-.31-.7.68-.39-.08-.76.77-.16.17-.75.78.07.4-.65.71.3.59-.5z"/><path class="cls-2" d="M51.32 72.39l.31.26c.08.07.18.1.28.1.06 0 .11-.01.17-.03l.38-.16.21.34c.08.13.22.2.37.2h.04l.41-.04.09.38c.04.16.16.29.33.32l.39.09-.04.38c-.02.17.07.33.21.41l.34.2-.15.35c-.07.15-.04.33.07.46l.26.28-.26.29c-.11.13-.14.31-.07.46l.15.35-.34.2a.42.42 0 00-.21.41l.04.38-.39.09c-.16.04-.29.16-.33.32l-.09.38-.41-.04h-.04a.45.45 0 00-.37.2l-.21.34-.38-.16a.467.467 0 00-.17-.03c-.1 0-.2.04-.28.1l-.31.26-.31-.26a.42.42 0 00-.28-.1c-.06 0-.11.01-.17.03l-.38.16-.21-.34a.436.436 0 00-.37-.21h-.04l-.41.04-.09-.38a.418.418 0 00-.33-.32l-.39-.09.04-.38a.42.42 0 00-.21-.41l-.34-.2.15-.35c.07-.15.04-.33-.07-.46l-.26-.28.26-.28c.11-.13.14-.31.07-.46l-.15-.35.34-.2a.42.42 0 00.21-.41l-.04-.38.39-.09c.16-.04.29-.16.33-.32l.09-.38.41.04h.04c.15 0 .29-.08.37-.21l.21-.34.38.16c.05.02.11.03.17.03.1 0 .2-.04.28-.1l.31-.26m0-.56l-.59.5-.72-.3-.4.65-.78-.07-.17.74-.76.17.07.76-.67.39.31.7-.52.57.52.57-.31.7.67.39-.07.76.76.17.17.74.78-.07.4.65.72-.3.59.5.59-.5.72.3.4-.65.78.07.17-.74.76-.17-.07-.76.67-.39-.31-.7.52-.57-.52-.57.31-.7-.67-.39.07-.76-.76-.17-.17-.74-.78.07-.4-.65-.72.3-.59-.5z"/><path class="cls-3" d="M108.04 57.71c-.61.07-1.04.61-.98 1.23.07.6.63 1.05 1.23.97.6-.07 1.04-.62.97-1.22-.07-.62-.61-1.06-1.22-.98zm-4.99-9.19c-.61.08-1.04.63-.97 1.24.08.6.64 1.04 1.25.96.6-.07 1.03-.63.95-1.23-.07-.61-.62-1.06-1.23-.97zm-61.58 2.05c.51.34 1.2.21 1.53-.31.34-.52.19-1.21-.31-1.55a1.12 1.12 0 00-1.53.32c-.34.52-.19 1.2.32 1.54zm12.23-7.44c-.15.49-.5.92-1 1.27-.68.47-1.52.55-2.15.47V43.7c.57.11 1.26-.02 1.62-.27.35-.25.51-.6.29-.91-.22-.31-.65-.19-.91-.12-.25.07-.69.2-.9.24-.15.03-.45.11-.79.05-.33-.04-.69-.2-.99-.63-.31-.44-.34-.94-.22-1.35.11-.41.43-.85.97-1.23s1.34-.56 1.88-.47l.06 1.08c-.46-.08-1.02.02-1.37.26-.35.25-.52.56-.32.84.2.28.54.2.8.14s.69-.18.88-.23c.16-.04.56-.14.91-.08.33.06.7.22.99.63.31.44.38.99.23 1.49zm6.64-3.76c-.14.39-.49 1.07-1.55 1.56-1.52.7-3.18.26-3.93-1.38-.76-1.65 0-3.2 1.5-3.9 1.07-.49 1.85-.32 2.05-.24l.08 1.17c-.16-.08-.9-.23-1.58.08-.88.41-1.29 1.3-.83 2.3.46 1 1.43 1.25 2.28.85.64-.3.99-.77 1.15-1.19l.84.75zm4.71-.54c-1.65.39-3.2-.36-3.62-2.14-.42-1.77.63-3.14 2.28-3.53 1.65-.39 3.2.37 3.62 2.14.42 1.77-.63 3.14-2.28 3.53zm-1.08-4.57c-.93.22-1.47 1.04-1.22 2.09.25 1.05 1.11 1.55 2.03 1.33.93-.22 1.47-1.05 1.22-2.1-.25-1.04-1.1-1.55-2.03-1.33zm9.35-1.11l-1.47.07.23 4.58-1.34.07-.23-4.58-1.47.07-.05-1.04 4.28-.21.05 1.04zm6.51.56l-1.46-.17-.52 4.56-1.33-.15.52-4.56-1.46-.17.12-1.04 4.26.49-.12 1.04zm2.73 5.36l-1.3-.34 1.41-5.46 1.3.34-1.41 5.45zm5.48 1.62c-.5.14-1.04.07-1.61-.17-.76-.32-1.28-1-1.54-1.57l.98-.63c.22.55.7 1.06 1.1 1.23.4.17.78.11.93-.24.15-.35-.18-.65-.38-.83-.19-.18-.53-.48-.68-.63-.1-.12-.33-.33-.47-.64-.14-.31-.2-.69 0-1.18.21-.5.62-.79 1.03-.91.4-.12.95-.09 1.56.17.61.26 1.19.84 1.4 1.34l-.88.63c-.18-.43-.56-.85-.96-1.02-.4-.17-.75-.14-.88.18s.11.56.31.75c.19.19.52.49.66.62.12.11.42.4.56.73.13.31.19.71 0 1.18-.21.5-.63.85-1.14.98zm6.46 4.34l-1.11-.76 1.33-1.95-1.89-1.29-1.33 1.95-1.1-.76 3.18-4.65 1.1.76-1.23 1.8 1.89 1.29 1.23-1.8 1.1.76-3.18 4.65zM36.62 70.96l.26-2.32-1.87-.21-.25 2.18-.66-.08.25-2.18-2.42-.28.09-.79 5.6.64-.35 3.11-.66-.08zm-5.01 3.22v-.79l5.63-.06v.79l-5.63.06zm.73 7.08l-.14-.95 2.18-1.82-.09-.6-2.4.36-.12-.78 5.57-.84.24 1.57c.08.56.02 1.03-.18 1.4-.22.37-.59.64-1.1.72-.98.15-1.52-.46-1.72-1.04l-2.24 1.97zm4.51-2.2c.15-.28.12-.58.06-.97l-.09-.57-1.89.29.09.57c.06.39.12.68.34.91.22.22.47.29.8.24.33-.05.55-.19.69-.47zm-2.9 8.16L32.97 84l5.39-1.65.96 3.15-.63.19-.73-2.4-1.61.49.69 2.27-.63.19-.69-2.26-1.87.57.75 2.46-.64.2zm5.26 10.17l-.47-.75.94-1.27-1.28-2.05-1.55.28-.44-.71 6.01-1.04.37.59-3.58 4.94zm.92-2.56l1.63-2.18-2.67.5 1.05 1.68zm4.17 8.38l-.53-.57 1.06-5.44s-.54.53-1.08 1.03l-2.19 2.05-.54-.57 4.12-3.85.57.61-1.05 5.35s.5-.48 1.04-.99l2.18-2.04.53.57-4.12 3.85zm6.25 3.98c-.55.07-1.34-.06-2.14-.63l-1.38-.99 3.28-4.58 1.38.99c.8.57 1.17 1.28 1.29 1.83.11.54.11 1.35-.5 2.2-.61.86-1.37 1.12-1.92 1.19zm1.66-3.36c-.08-.42-.36-.9-.92-1.3l-.74-.53-2.49 3.47.74.53c.56.4 1.1.51 1.53.45.42-.06 1.01-.25 1.48-.92.48-.67.48-1.29.4-1.71zm8.21 8.88l-.9-.33-.53-2.79-.57-.21-.85 2.27-.74-.28 1.98-5.28 1.49.56c.53.2.91.48 1.13.84.22.37.27.83.09 1.31-.35.93-1.14 1.1-1.74 1l.63 2.91zm.27-5.01c-.17-.27-.45-.39-.82-.52l-.54-.2-.67 1.79.54.2c.37.14.66.23.96.15.3-.09.48-.26.6-.59.12-.31.1-.57-.07-.83zm5.75 6.39l-3.3-.66 1.11-5.52 3.23.65-.13.65-2.46-.49-.33 1.65 2.32.47-.13.65-2.32-.46-.38 1.92 2.52.51-.13.66zm6 .11c-.36.27-.83.41-1.4.39-.99-.04-1.53-.69-1.78-1.01l.48-.51c.27.39.79.84 1.4.86.61.02 1.11-.31 1.14-.9.02-.59-.6-.84-.88-.96-.29-.13-.68-.29-.88-.41-.12-.06-.35-.19-.55-.42-.2-.22-.35-.54-.33-.99.02-.46.24-.82.55-1.07.32-.25.77-.39 1.31-.37.92.03 1.44.62 1.59.79l-.44.52c-.27-.3-.66-.63-1.22-.65-.55-.02-.99.22-1.01.75s.36.73.69.88l1.02.47c.1.05.44.25.62.48.17.23.32.54.31.96-.02.49-.25.91-.63 1.2zm8.22-1.16c-.29.44-.85.97-1.91 1.13-1.62.25-3.02-.71-3.29-2.44-.26-1.73.81-3.06 2.41-3.3 1.04-.16 1.74.18 2.09.44l-.24.68c-.26-.24-.94-.55-1.72-.43-1.2.18-1.94 1.18-1.75 2.49.2 1.31 1.21 2.04 2.4 1.86.73-.11 1.26-.48 1.56-.93l.43.52zm6.44-3.51c.22.67.33 1.21.12 1.77-.23.54-.68.95-1.39 1.19-.71.24-1.33.18-1.82-.12-.52-.31-.75-.82-.98-1.48l-1.05-3.16.76-.25 1.03 3.09c.15.45.3.88.65 1.12.31.22.72.28 1.19.13.47-.15.75-.45.87-.82.13-.4 0-.84-.15-1.28l-1.03-3.09.75-.25 1.05 3.16zm6.85-.86l-2.96 1.61-2.69-4.95 2.9-1.58.32.58-2.2 1.2.8 1.48 2.08-1.13.32.58-2.08 1.13.94 1.72 2.26-1.23.32.59zm7.33-6.13c-.06.45-.3.88-.71 1.26-.73.67-1.57.58-1.98.54l-.02-.71c.47.09 1.15.04 1.6-.37.45-.42.57-1.01.17-1.44-.4-.43-1.02-.17-1.3-.06-.29.11-.69.27-.91.33-.13.04-.39.11-.69.09-.29-.02-.62-.13-.93-.47-.31-.34-.41-.76-.36-1.15.05-.4.27-.81.67-1.19.68-.63 1.46-.58 1.68-.56l.06.68c-.4-.03-.91.02-1.32.4s-.54.86-.19 1.24c.35.38.77.27 1.11.14l1.06-.38c.11-.04.49-.13.78-.1.28.04.61.15.89.46.33.36.46.83.4 1.3zm4.85-5.09l-2.09 2.64-4.42-3.5 2.05-2.59.52.41-1.55 1.97 1.32 1.04 1.47-1.86.52.41-1.47 1.86 1.54 1.22 1.6-2.02.52.42zm3.61-5.98l-.47.83-2.83.1-.29.53 2.12 1.18-.39.69-4.92-2.75.78-1.39c.27-.49.61-.83 1-.99.4-.16.86-.15 1.31.1.86.48.91 1.29.72 1.87l2.97-.18zm-4.91-1.02c-.29.13-.45.39-.64.73l-.28.51 1.67.93.28-.51c.19-.34.32-.61.29-.92-.04-.31-.19-.52-.49-.68-.29-.16-.55-.19-.83-.05zm2.11-7.31l4.61 3.87-.24.66-6.01.04.29-.8 4.76.03-3.69-3.01.28-.78zm6.09-1.54l-.17.77-5.51-1.18.17-.78 5.51 1.18zm.16-7.99c.37.38.77 1.04.7 2.11-.11 1.64-1.34 2.8-3.09 2.69-1.75-.12-2.82-1.46-2.71-3.07.07-1.05.55-1.66.87-1.95l.61.38c-.29.2-.74.8-.79 1.59-.08 1.22.73 2.15 2.06 2.24 1.32.09 2.25-.74 2.33-1.95.05-.74-.2-1.33-.58-1.73l.6-.3zm.24-6.36l.35 3.35-5.6.59-.35-3.28.66-.07.26 2.49 1.67-.18-.25-2.36.66-.07.25 2.36 1.95-.21-.27-2.56.67-.07zM36.66 59.9c.59.18 1.2-.14 1.4-.73.17-.58-.16-1.21-.74-1.39-.58-.18-1.2.15-1.38.72-.19.59.13 1.22.72 1.39z"/><path class="cls-2" d="M99.37 62.85c.01-.6 0-.55-.12-1.18-.24-1.39-.44-2.38-.83-3.7l-.21.86c-.27.77-.57 1.19-.64.89-.45-1.97-1.81-4.71-2.46-5.71 0 0 .19.79-.22 2.26-.41 1.49-1.25 2.89-1.63 5.35-.35-.39-1.39-1.56-1.95-1.89 0 0 .26 1.48.26 2.43 0 1.55-.18 2.04-.66 3.93 0 0-.77-.56-1.14-1.52-.17-.44-.28-1.14-.28-1.14-1.29 3.12-.02 7.6-1.23 8.31-.05.03-.07.03-.07.03-.38-.27-1.01-1.6-1.01-1.6s-1.23 8.12-1.3 9.08c-.7-.53-1.01-1.91-1.2-2.74 0 0-1.82 5.8-1.79 9.13.07 7.56 1.65 7.95.43 11.41-.86 2.41-4.54 3.98-4.46 3.98 2.6.05 1.67 1.66 1.67 1.66 2.53-1.55 6.07-4.26 7.92-6.25 1.54-1.66 5.42-3.15 7.69-3.57-.41-.07-1.21-.26-1.71-.59 0 0 3.4-1.96 4.82-3.67.89-1.07 1.61-2.79 1.61-2.79-.81.34-.89.52-1.41.6 0 0 1.26-2.03 1.81-3.45.72-1.89 1.06-5.08 1.06-5.08-.66 1-1.07 1.41-1.07 1.41s.51-3.07-.38-5.81c0 0-1.64 5.09-1.96 5.86-.39.94-1.08 2.35-1.89 2.45-.39.05-1.04 0-1.54-1.87 0 0-1.32 5.73-1.73 6.58 0 0-.43-.75-.52-1.33 0 0-1.58 3.46-2.62 5.34-1.67 3.02-2.59 4.18-3.62 5.05 0 0 3.02-5.45 4.13-7.9.02-.04-.44.11-.45.14.74-2.09 2.39-5.49 3.03-6.82.55-1.15.58-1.34.52-1.48 0 0-1-.84-1.52-.58l-.15.74c-.44 1.37-1.01 2.32-1.66 3.8-.46 1.05-.89 1.95-1.2 2.79-.06.11-.22-.28-.24-.18-2.2 5.92-2.94 6.29-3.55 7.91-.11-.85-.23-4.94 2.29-8.87 2.1-3.27 3.91-5.73 5.05-9.2.54-1.63 1.95-3.5 3.25-5.04.47-.55 1.7-1.13 2.11-1.61 1.77-2.08 1.68-6.98 1.68-6.98-.53.3-.68.43-.97.7l.05-.15z"/><path class="cls-13" d="M97.13 70.21c-.21.32-.84.21-1.52.98.26.96-3.11-.05-2.93.62.37 1.33-1.53 1.51-1.03 2.49 1.75 3.44-1.59 7.12-3.9 10.67-3.26 5.02-2.16 9.81-2.16 9.81s.68.34 3.98-7.92c.07-.17.04.4.11.22.38-.96 1.07-2.46 1.62-3.67.62-1.37 1-2.06 1.51-3.38.11-.29.22-.99.41-1.07.34-.15.88.01.74.47-.29.96-.43 1.12-.96 2.19-1.11 2.23-1.92 4.25-2.87 6.53-.12.28.49-.2.37.07-2.14 4.38-4.57 8.39-4.57 8.39 2.44-1.19 3.5-2.84 5.09-6 .74-1.29 1.67-3.12 2.16-4.4l.64.84s.49-.77.88-2.4c.21-.9.66-2.47.88-3.58 0 0 .28 1.12 1.31 1.08 1.36-.05 2.14-2.18 2.14-2.18 1.08-2.77 1.72-4.52 1.86-5.54-.07.51.21 2.19.11 3.43-.14 1.8-.19 2.48-.19 2.48.22-.18.92-.85.93-.92-.58 4.49-3.2 7.68-3.2 7.68.19 0 1.5-.25 1.61-.48-1.7 3.41-6.53 5.6-6.53 5.6.06.05.78.67 1.3.63-2.17.48-5.38 1.73-6.88 3.35-2.09 2.25-4.14 3.64-6.8 5.5 0 0 .07-1.15-1.08-.92-.03 0 2.72-1.25 3.41-3.03.98-2.52.66-4.03.43-5.63-.76-5.18-1.15-6.67.73-13.99-.17.65 1.27 2.04 1.3 2.11.26.49 1.19-6.96 1.46-8.75.22.56.89 1.03.89 1.03 1.7-1.49.47-5.45 1.17-7.49l.37.59c.37.59 1.19 1.11 1.19 1.11.22-.22.61-1.52.66-1.78.31-1.54.44-2.29.06-4.22.71.52 1.57 1.87 1.57 1.87.07-.07.33-1.46.88-3.24.38-1.22 1.07-2.31 1.25-3.76-.02.2.5.94.99 2.15.33.8.62 1.83.86 2.67.01.05.78-.3.96-1.11.02-.11.71 3.67.68 4.44 0 0 .46-.48.88-.72 0 0-.31 4.66-1.57 5.88l-1.22 1.3z"/><path class="cls-7" d="M96.75 83.98c-.41.22-.94-.47-.94-.47-.66 4.04-2.43 6.01-2.43 6.01-.41-.52-.35-1.38-.35-1.38-1.47 2.97-3.34 6.04-3.34 6.04 1.55-1.26 3.38-1.36 3.38-1.36-.59-.18-.74-.37-.74-.37s4.34-2.96 4.25-3.12c0 0-.95.28-.81.15 2.37-2.3 4.54-7.68 4.54-7.68s-.7 1.02-1.21 1.05c0 0 .94-1.41 1.08-4 0 0-1.19 3.95-3.42 5.15zm-.06-23.3s.2 3.18.09 4.27c-.04.36 1.08-.86 1.07-.82-.8 5.71-5.81 9.4-6.34 11.17-.62 2.08-1.47 4.56-3.54 6.93-3.15 3.61-3.27 8.64-3.27 8.64-.27-3.67-.16-5.45.71-10.41 0 0 .9 1.57 1.08 1.63.33.12 3.02-8.28 3.02-8.28s.26.95.78 1.09c0 0 1.14-3.1.35-7.43.09-.24 1.62 3.48 1.71 3.23.42-1.1.66-2.48.77-4.34.04-.66.07-2.19-.16-3.26.13.63 1.49 2.14 1.49 2.14 1-.52 1.99-3.9 2.25-4.57z"/><path class="cls-12" d="M92.84 69.97c-.35 1.39.85 2.89 2.68 3.35 1.83.46 3.6-.28 3.95-1.67.35-1.39-.85-2.89-2.68-3.35-1.83-.46-3.6.29-3.95 1.67z"/><path class="cls-5" d="M97.01 75.09c.82-.79 3.43-1.3 3.43-1.3-1-.16-2.04.14-2.03.13.37-.56 2.43-.77 2.43-.79-.01-.15-1.59 0-1.59 0s2.65-1.05 2.84-1.4c0 0-2.9 1.25-2.39.53.24-.33.34-1 .33-1.5 0 0-.68 1.78-1.83 2.09-.42.11 2.4-2.43 1.86-3.78 0 0-.67 2.54-2.43 3-.37.1 1.49-.87 1.24-2.31 0-.01-.34 1.69-1.94 1.84-.05 0 1.83-2.52 1.15-3.59 0 0 .11 1.94-2.46 4.37-.32.3-2.56 1.33-2.39 1.35 3.41.44 3.77 1.37 3.77 1.37z"/><path class="cls-5" d="M93.28 74.11c-.35-1.09-2.49-2.83-2.49-2.83 1.01.36 1.8 1.13 1.8 1.12-.05-.67-1.84-1.87-1.83-1.89.09-.12 1.45.8 1.45.8s-1.9-2.22-1.89-2.62c0 0 2.02 2.52 1.92 1.64-.05-.4.2-1.03.48-1.46 0 0-.29 1.87.6 2.71.33.31-.95-3.29.24-4.18 0 0-.69 2.52.69 3.79.29.27-.92-1.49.05-2.61 0 0-.56 1.62.83 2.55.04.03-.38-3.08.79-3.67 0 0-1.1 1.61.02 4.98.14.42 1.64 2.34 1.47 2.28-3.32-1.27-4.14-.62-4.14-.62z"/><path class="cls-13" d="M94.72 71.81l-.59.51-.71-.3-.4.65-.78-.07-.17.75-.76.17.07.75-.67.39.31.7-.51.57.52.57-.31.7.67.39-.07.76.76.16.18.75.78-.08.4.66.71-.31.59.5.59-.5.72.3.39-.66.78.07.17-.74.77-.17-.08-.76.67-.39-.31-.7.52-.57-.52-.57.31-.7-.68-.38.07-.76-.76-.17-.17-.74-.78.07-.4-.65-.72.3-.59-.5z"/><path class="cls-2" d="M94.72 72.38l.31.26c.08.07.18.1.28.1.06 0 .11-.01.17-.03l.38-.16.21.34c.08.13.22.2.36.2h.04l.41-.04.09.38c.04.16.16.29.33.32l.39.09-.03.38c-.02.17.07.33.21.41l.34.2-.15.35c-.07.15-.04.33.07.46l.26.28-.26.29c-.11.13-.14.31-.07.46l.15.35-.34.2a.42.42 0 00-.21.41l.04.38-.39.09a.42.42 0 00-.32.32l-.09.38-.41-.04h-.04c-.15 0-.29.08-.37.21l-.21.34-.38-.16a.453.453 0 00-.16-.03c-.1 0-.2.04-.28.1l-.31.26-.31-.26a.42.42 0 00-.28-.1c-.06 0-.11.01-.17.03l-.38.16-.21-.34a.423.423 0 00-.36-.2h-.04l-.41.04-.09-.38a.418.418 0 00-.33-.32l-.39-.08.04-.38a.42.42 0 00-.21-.41l-.34-.2.15-.35a.43.43 0 00-.07-.46l-.26-.28.26-.29c.11-.13.14-.31.07-.46l-.15-.35.34-.2a.42.42 0 00.21-.41l-.04-.38.39-.09a.42.42 0 00.32-.32l.09-.38.41.04h.04c.15 0 .29-.08.37-.21l.21-.34.38.16c.05.02.11.03.16.03.1 0 .2-.04.28-.1l.31-.27m0-.56l-.59.5-.72-.3-.4.65-.78-.07-.17.74-.76.17.07.76-.67.39.31.7-.51.57.52.57-.31.7.67.39-.07.76.76.16.17.74.78-.07.4.65.72-.3.59.5.59-.5.72.3.4-.65.78.07.17-.74.76-.17-.07-.76.67-.39-.31-.7.51-.57-.52-.57.31-.7-.67-.39.07-.76-.76-.17-.17-.74-.78.07-.4-.65-.72.3-.59-.5z"/><path class="cls-2" d="M97.42 77.02c.17-.17-.01-.44-.01-.44s-.02.35-.33.51c-.04.02.25.02.34-.07zm-.54 1.24c.22-.07.19-.39.19-.39s-.18.31-.53.3c-.05 0 .21.13.34.09zm-.05-3.51c-.01-.24-.33-.28-.33-.28s.25.25.16.59c-.01.05.19-.17.17-.3zm-1.19 3.9c.22-.07.19-.39.19-.39s-.18.31-.53.3c-.05 0 .21.13.34.09zm.9-1.09c.17-.17-.01-.44-.01-.44s-.02.35-.33.51c-.04.02.25.02.34-.08zm-1.59.56c.23-.05.22-.37.22-.37s-.2.29-.55.26c-.05 0 .2.15.33.12zm1.88-1.96c.17-.17-.01-.43-.01-.43s-.02.35-.33.51c-.04.02.25.02.34-.08zm-1.02 1.12c.21-.11.12-.42.12-.42s-.12.33-.47.39c-.05 0 .23.1.35.03zm-3.88-.06c0 .24.31.31.31.31s-.23-.27-.11-.6c.02-.04-.2.15-.2.29zm-.45-1.28c-.11.21.13.41.13.41s-.08-.34.18-.58c.03-.03-.25.05-.31.17zm1.4 1.91c.17.16.44-.02.44-.02s-.35 0-.52-.32c-.02-.04-.02.25.08.34zm-.78-3.04c-.11.21.13.41.13.41s-.08-.34.18-.58c.03-.03-.25.05-.31.17zm.1 1.41c0 .24.31.31.31.31s-.23-.27-.11-.6c.02-.04-.2.15-.2.29zm1.06-2.35c-.13.2.1.42.1.42s-.05-.35.23-.56c.04-.03-.25.02-.32.14zm-.38 2.83c0 .24.31.31.31.31s-.23-.27-.11-.6c.02-.04-.2.15-.2.29zm0-1.55c-.08.22.2.39.2.39s-.14-.32.07-.6c.03-.04-.24.09-.27.22zm4.92.34c-.01-.24-.33-.28-.33-.28s.25.25.16.59c-.01.04.19-.17.17-.31zm-49.16 1.55c-.17-.17 0-.44 0-.44s.02.35.33.51c.04.02-.25.03-.34-.07zm.54 1.24c-.22-.07-.19-.39-.19-.39s.18.31.53.3c.05 0-.21.14-.34.09zm.04-3.51c.01-.24.33-.28.33-.28s-.25.25-.16.59c.01.05-.19-.17-.17-.3zm1.2 3.9c-.22-.07-.19-.39-.19-.39s.18.3.53.3c.05 0-.21.14-.34.09zm-.9-1.08c-.17-.17 0-.44 0-.44s.02.35.33.51c.04.02-.25.03-.34-.07zm1.58.54c-.23-.05-.22-.37-.22-.37s.2.29.55.26c.05 0-.2.15-.33.12zm-1.88-1.95c-.17-.17 0-.44 0-.44s.02.35.33.51c.04.02-.25.03-.34-.07zm1.02 1.11c-.21-.11-.12-.42-.12-.42s.12.33.47.39c.05 0-.23.1-.35.03zm3.89-.06c0 .24-.31.31-.31.31s.23-.27.11-.6c-.02-.04.2.15.2.29zm.45-1.28c.11.21-.13.42-.13.42s.08-.34-.18-.58c-.03-.03.25.05.31.17zm-1.41 1.91c-.17.16-.43-.02-.43-.02s.35-.01.52-.32c.02-.04.02.25-.08.34zm.78-3.04c.11.21-.13.41-.13.41s.08-.34-.18-.58c-.03-.03.25.05.31.17zm-.09 1.4c0 .24-.31.31-.31.31s.23-.27.11-.6c-.02-.04.2.15.2.29zm-1.07-2.33c.13.2-.09.42-.09.42s.05-.35-.23-.56c-.04-.03.25.02.32.14zm.38 2.82c0 .24-.31.31-.31.31s.23-.27.11-.6c-.02-.04.2.15.2.29zm0-1.55c.08.22-.2.39-.2.39s.14-.32-.07-.6c-.03-.04.23.09.27.22zm-4.91.35c.01-.24.33-.28.33-.28s-.25.25-.16.59c.01.05-.18-.17-.17-.3z"/></g></svg>