<svg width="19" height="17" viewBox="0 0 19 17" fill="none" xmlns="http://www.w3.org/2000/svg">
<path fill-rule="evenodd" clip-rule="evenodd" d="M0 2C0 0.89543 0.895431 0 2 0H17C18.1046 0 19 0.895431 19 2V16C19 16.5523 18.5523 17 18 17C17.4477 17 17 16.5523 17 16V2H2V16C2 16.5523 1.55228 17 1 17C0.447715 17 0 16.5523 0 16V2ZM6 3C6.55228 3 7 3.44772 7 4V5H8C8.55228 5 9 5.44772 9 6C9 6.55228 8.55228 7 8 7H7V8C7 8.55228 6.55228 9 6 9C5.44772 9 5 8.55228 5 8V7H4C3.44772 7 3 6.55228 3 6C3 5.44772 3.44772 5 4 5H5V4C5 3.44772 5.44772 3 6 3ZM3.79289 9.79289C4.18342 9.40237 4.81658 9.40237 5.20711 9.79289L6 10.5858L6.79289 9.79289C7.18342 9.40237 7.81658 9.40237 8.20711 9.79289C8.59763 10.1834 8.59763 10.8166 8.20711 11.2071L7.41421 12L8.20711 12.7929C8.59763 13.1834 8.59763 13.8166 8.20711 14.2071C7.81658 14.5976 7.18342 14.5976 6.79289 14.2071L6 13.4142L5.20711 14.2071C4.81658 14.5976 4.18342 14.5976 3.79289 14.2071C3.40237 13.8166 3.40237 13.1834 3.79289 12.7929L4.58579 12L3.79289 11.2071C3.40237 10.8166 3.40237 10.1834 3.79289 9.79289Z" fill="#202020"/>
<path fill-rule="evenodd" clip-rule="evenodd" d="M15.0548 9.66806C15.5143 9.97441 15.6385 10.5953 15.3322 11.0548L13.3322 14.0548C13.0258 14.5143 12.4049 14.6385 11.9454 14.3322C11.4859 14.0258 11.3617 13.4049 11.6681 12.9454L13.6681 9.94541C13.9744 9.48588 14.5953 9.3617 15.0548 9.66806Z" fill="#202020"/>
<path fill-rule="evenodd" clip-rule="evenodd" d="M11 6C11 5.44772 11.4477 5 12 5H15C15.5523 5 16 5.44772 16 6C16 6.55228 15.5523 7 15 7H12C11.4477 7 11 6.55228 11 6Z" fill="#202020"/>
<path d="M2 15H17V17H2V15Z" fill="#F0F0F0"/>
<path d="M12.5 10.5C12.5 11.0523 12.0523 11.5 11.5 11.5C10.9477 11.5 10.5 11.0523 10.5 10.5C10.5 9.94772 10.9477 9.5 11.5 9.5C12.0523 9.5 12.5 9.94772 12.5 10.5Z" fill="#202020"/>
<path className="keep-bg" d="M16.5 13.5C16.5 14.0523 16.0523 14.5 15.5 14.5C14.9477 14.5 14.5 14.0523 14.5 13.5C14.5 12.9477 14.9477 12.5 15.5 12.5C16.0523 12.5 16.5 12.9477 16.5 13.5Z" fill="#202020"/>
</svg>
