<svg width="20" height="17" viewBox="0 0 20 17" fill="none" xmlns="http://www.w3.org/2000/svg">
<path fill-rule="evenodd" clip-rule="evenodd" d="M0 2C0 0.89543 0.895431 0 2 0H18C19.1046 0 20 0.89543 20 2V16C20 16.5523 19.5523 17 19 17C18.4477 17 18 16.5523 18 16V2H2V16C2 16.5523 1.55228 17 1 17C0.447715 17 0 16.5523 0 16V2ZM13.5 7C14.0523 7 14.5 7.44772 14.5 8V13C14.5 13.5523 14.0523 14 13.5 14C12.9477 14 12.5 13.5523 12.5 13V8C12.5 7.44772 12.9477 7 13.5 7Z" fill="#202020"/>
<path fill-rule="evenodd" clip-rule="evenodd" d="M14.2809 6.37534C14.6259 6.8066 14.556 7.4359 14.1247 7.78091L11.6247 9.78091C11.1935 10.1259 10.5642 10.056 10.2192 9.62473C9.87416 9.19347 9.94408 8.56418 10.3753 8.21917L12.8753 6.21917C13.3066 5.87416 13.9359 5.94408 14.2809 6.37534Z" fill="#202020"/>
<path fill-rule="evenodd" clip-rule="evenodd" d="M12.7192 6.37534C13.0642 5.94408 13.6935 5.87416 14.1247 6.21917L16.6247 8.21917C17.056 8.56418 17.1259 9.19347 16.7809 9.62473C16.4359 10.056 15.8066 10.1259 15.3753 9.78091L12.8753 7.78091C12.4441 7.4359 12.3742 6.8066 12.7192 6.37534Z" fill="#202020"/>
<path fill-rule="evenodd" clip-rule="evenodd" d="M3 3.5C3 2.94772 3.44772 2.5 4 2.5H8.5C9.05228 2.5 9.5 2.94772 9.5 3.5C9.5 4.05228 9.05228 4.5 8.5 4.5H4C3.44772 4.5 3 4.05228 3 3.5ZM3 6C3 5.44772 3.44772 5 4 5H7C7.55228 5 8 5.44772 8 6C8 6.55228 7.55228 7 7 7H4C3.44772 7 3 6.55228 3 6Z" fill="#202020"/>
<path d="M2 15H18V17H2V15Z" fill="#F0F0F0" className="keep-bg" />
</svg>
