<svg width="46" height="17" viewBox="0 0 46 17" fill="none" xmlns="http://www.w3.org/2000/svg">
<path fill-rule="evenodd" clip-rule="evenodd" d="M16.2192 2.26187C16.0062 2.12875 15.7509 2.08066 15.5041 2.12716L10.9657 2.98218L17.0925 6.51131C19.301 7.78348 19.0007 11.0458 16.6219 11.9183C9.19135 14.6437 5.347 15.908 3.35125 16.4919C2.35789 16.7825 1.79506 16.9128 1.46334 16.9678C1.30151 16.9947 1.15567 17.0105 1.02324 17.0072C0.956749 17.0055 0.860808 16.9985 0.752627 16.9697C0.6965 16.9548 0.625997 16.9312 0.549507 16.8923C0.510688 16.8726 0.468782 16.8481 0.425708 16.8178C0.404118 16.8026 0.382138 16.7858 0.360065 16.7674C0.349026 16.7582 0.337965 16.7485 0.32692 16.7385L0.310375 16.723C0.302087 16.715 0.293894 16.7069 1.001 15.9998C1.70811 15.2927 1.69992 15.2846 1.69164 15.2766L1.67512 15.2612C1.6641 15.2511 1.65309 15.2415 1.64211 15.2324C1.62015 15.214 1.59835 15.1974 1.57702 15.1824C1.53447 15.1524 1.49341 15.1285 1.45585 15.1094C1.38188 15.0718 1.31558 15.0499 1.2662 15.0368C1.17152 15.0116 1.09924 15.0084 1.07341 15.0078C1.05328 15.0073 1.04162 15.008 1.04161 15.0079C1.04161 15.0078 1.06919 15.0059 1.13596 14.9948C1.34826 14.9596 1.82016 14.856 2.78967 14.5724C4.71966 14.0077 8.51362 12.762 15.9333 10.0406C16.7325 9.74746 16.8188 8.66176 16.0942 8.24436L9.96744 4.71523C8.35862 3.78852 8.77091 1.36049 10.5954 1.01675L15.1338 0.161736C15.8743 0.0222247 16.6402 0.1665 17.2792 0.565877L24.5713 5.12344C24.8375 5.2898 25.1664 5.32153 25.4594 5.20913L35.7795 1.25116C36.2542 1.06911 36.7673 1.01067 37.2708 1.08135L43.2324 1.9182C43.9367 2.01707 44.5616 2.4216 44.9401 3.02376C45.7439 4.30257 45.1916 5.99667 43.7872 6.55484C40.3457 7.9226 36.5644 9.47045 32.9561 10.9475C30.908 11.7859 28.9157 12.6014 27.0729 13.3483C24.534 14.3772 22.2781 15.2761 20.5645 15.9185C19.7089 16.2393 18.9774 16.5003 18.4085 16.6824C18.1246 16.7732 17.8698 16.8482 17.6538 16.9014C17.462 16.9486 17.2211 16.9998 17.001 16.9998V14.9998C16.9911 14.9998 16.9856 15 16.9856 14.9997C16.9855 14.9988 17.0397 14.9929 17.1753 14.9595C17.3295 14.9215 17.5367 14.8615 17.7988 14.7776C18.3217 14.6102 19.0178 14.3624 19.8624 14.0458C21.5493 13.4133 23.7843 12.5231 26.3217 11.4947C28.1507 10.7534 30.1364 9.9406 32.1816 9.10343C35.7977 7.62323 39.5994 6.06703 43.0485 4.69624C43.2903 4.60014 43.3857 4.30908 43.2468 4.0881C43.182 3.98499 43.075 3.91571 42.9544 3.89878L36.9928 3.06193C36.8249 3.03837 36.6539 3.05785 36.4957 3.11853L26.1756 7.07651C25.2964 7.41371 24.3099 7.31852 23.5113 6.81944L16.2192 2.26187Z" fill="#202020"/>
<path d="M8.00195 15H17.002L12.002 17H1.50195L8.00195 15Z" fill="#F0F0F0" className="keep-bg" />
</svg>
