<svg width="23" height="19" viewBox="0 0 23 19" fill="none" xmlns="http://www.w3.org/2000/svg">
<path className="keep-bg" d="M2 17H21V19H2V17Z" fill="#F0F0F0"/>
<path fill-rule="evenodd" clip-rule="evenodd" d="M16.5 2C16.5 0.895431 17.3954 0 18.5 0H21C22.1046 0 23 0.895431 23 2V18C23 18.5523 22.5523 19 22 19C21.4477 19 21 18.5523 21 18V2H18.5V8C18.5 9.10457 17.6046 10 16.5 10H13.0352C12.3665 10 11.742 9.6658 11.3711 9.1094L9.57768 6.4193L8.67063 8.05199C7.94347 9.36087 6.08878 9.43594 5.25822 8.1901L4 6.30278L2 9.30278V18C2 18.5523 1.55228 19 1 19C0.447715 19 0 18.5523 0 18V9.30278C0 8.90792 0.116876 8.52191 0.335899 8.19337L2.3359 5.19338C3.12754 4.00591 4.87246 4.00591 5.6641 5.19338L6.92232 7.0807L7.82937 5.44801C8.55652 4.13913 10.4112 4.06406 11.2418 5.3099L13.0352 8L16.5 8V2Z" fill="#202020"/>
<path fill-rule="evenodd" clip-rule="evenodd" d="M9 10C9.55228 10 10 10.4477 10 11V12.5H12C12.5523 12.5 13 12.9477 13 13.5C13 14.0523 12.5523 14.5 12 14.5H10V16C10 16.5523 9.55228 17 9 17C8.44772 17 8 16.5523 8 16V14.5H6C5.44772 14.5 5 14.0523 5 13.5C5 12.9477 5.44772 12.5 6 12.5H8V11C8 10.4477 8.44772 10 9 10Z" fill="#202020"/>
</svg>
