<svg width="17" height="17" viewBox="0 0 17 17" fill="none" xmlns="http://www.w3.org/2000/svg">
<path fill-rule="evenodd" clip-rule="evenodd" d="M7.54916 0.371584C8.1505 0.0532298 8.87243 0.062433 9.46546 0.39601L15.4402 3.75683C16.7996 4.52144 16.7995 6.47852 15.4402 7.24313L9.46546 10.604C8.87243 10.9375 8.1505 10.9467 7.54916 10.6284L1.20094 7.26756C-0.218018 6.51634 -0.218028 4.48362 1.20094 3.73241L7.54916 0.371584ZM8.48493 2.13916L2.13672 5.49998L8.48494 8.8608L14.4597 5.49998L8.48493 2.13916Z" fill="#202020"/>
<path fill-rule="evenodd" clip-rule="evenodd" d="M4 7C4.55228 7 5 7.44772 5 8V13C5 13.5523 4.55228 14 4 14C3.44772 14 3 13.5523 3 13V8C3 7.44772 3.44772 7 4 7Z" fill="#202020"/>
<path fill-rule="evenodd" clip-rule="evenodd" d="M13 6.5C13.5523 6.5 14 6.94772 14 7.5V13C14 13.5523 13.5523 14 13 14C12.4477 14 12 13.5523 12 13V7.5C12 6.94772 12.4477 6.5 13 6.5Z" fill="#202020"/>
<path fill-rule="evenodd" clip-rule="evenodd" d="M15.5 4C16.0523 4 16.5 4.44772 16.5 5V9.5C16.5 10.0523 16.0523 10.5 15.5 10.5C14.9477 10.5 14.5 10.0523 14.5 9.5V5C14.5 4.44772 14.9477 4 15.5 4Z" fill="#202020"/>
<path fill-rule="evenodd" clip-rule="evenodd" d="M3.12602 12.5145C3.39424 12.0318 4.00304 11.8578 4.48583 12.126L8.50018 14.3562L8.01454 15.2304L8.50018 14.3562L12.5145 12.126C12.9973 11.8578 13.6061 12.0318 13.8743 12.5145C14.1426 12.9973 13.9686 13.6061 13.4858 13.8743L9.47147 16.1045C8.86742 16.4401 8.13294 16.4401 7.5289 16.1045L3.51454 13.8743C3.03176 13.6061 2.85781 12.9973 3.12602 12.5145Z" fill="#202020"/>
</svg>
