<svg width="17" height="19" viewBox="0 0 17 19" fill="none" xmlns="http://www.w3.org/2000/svg">
<path fill-rule="evenodd" clip-rule="evenodd" d="M0.5 4.5C0.5 3.94772 0.947715 3.5 1.5 3.5H5C5.55228 3.5 6 3.94772 6 4.5C6 5.05228 5.55228 5.5 5 5.5H1.5C0.947715 5.5 0.5 5.05228 0.5 4.5ZM0 7C0 6.44772 0.447715 6 1 6H3C3.55228 6 4 6.44772 4 7C4 7.55228 3.55228 8 3 8H1C0.447715 8 0 7.55228 0 7ZM0 9.5C0 8.94772 0.447715 8.5 1 8.5H5C5.55228 8.5 6 8.94772 6 9.5C6 10.0523 5.55228 10.5 5 10.5H1C0.447715 10.5 0 10.0523 0 9.5ZM0 13C0 11.8954 0.89543 11 2 11H3C3.55228 11 4 11.4477 4 12C4 12.5523 3.55228 13 3 13H2V13.5H5C5.55228 13.5 6 13.9477 6 14.5C6 15.0523 5.55228 15.5 5 15.5H2C0.895431 15.5 0 14.6046 0 13.5V13Z" fill="var(--primary)"/>
<path fill-rule="evenodd" clip-rule="evenodd" d="M0 2.5C0 1.39543 0.89543 0.5 2 0.5H9C10.1046 0.5 11 1.39543 11 2.5V17C11 18.1046 10.1046 19 9 19H2C0.89543 19 0 18.1046 0 17V2.5ZM9 2.5H2V17H9V2.5Z" fill="var(--primary)"/>
<path fill-rule="evenodd" clip-rule="evenodd" d="M14.5 0.76416L16.7889 5.34187C16.9277 5.61958 17 5.92581 17 6.2363V18.0002C17 18.5525 16.5523 19.0002 16 19.0002C15.4477 19.0002 15 18.5525 15 18.0002V6.2363L14.5 5.2363L14 6.2363V18.0002C14 18.5525 13.5523 19.0002 13 19.0002C12.4477 19.0002 12 18.5525 12 18.0002V6.2363C12 5.92581 12.0723 5.61958 12.2111 5.34187L14.5 0.76416Z" fill="var(--primary)"/>
<path d="M2 17H9V19H2V17Z" fill="var(--background)" className="keep-bg" />
<path d="M14 17H15V19H14V17Z" fill="var(--background)" className="keep-bg" />
</svg>
