<svg width="14" height="18" viewBox="0 0 14 18" fill="none" xmlns="http://www.w3.org/2000/svg">
<path fill-rule="evenodd" clip-rule="evenodd" d="M4.50016 5C5.05245 5 5.50016 5.44772 5.50016 6V10.7639L7.94695 15.6575L9.00016 13.2878V9C9.00016 8.44772 9.44788 8 10.0002 8C10.5524 8 11.0002 8.44772 11.0002 9V13.1795L13.3139 16.4188C13.6349 16.8682 13.5308 17.4927 13.0814 17.8137C12.632 18.1347 12.0074 18.0307 11.6864 17.5812L10.2034 15.505L9.77458 16.4698C9.08811 18.0143 6.91399 18.0637 6.1581 16.5519L4.43247 13.1007L1.86394 17.5039C1.58566 17.9809 0.973344 18.1421 0.496292 17.8638C0.0192398 17.5855 -0.141896 16.9732 0.136384 16.4961L3.50016 10.7297V6C3.50016 5.44772 3.94788 5 4.50016 5Z" fill="#202020"/>
<path d="M7.5 3C7.5 4.65685 6.15685 6 4.5 6C2.84315 6 1.5 4.65685 1.5 3C1.5 1.34315 2.84315 0 4.5 0C6.15685 0 7.5 1.34315 7.5 3Z" fill="#202020"/>
<path fill-rule="evenodd" clip-rule="evenodd" d="M4.5 4C5.05228 4 5.5 3.55228 5.5 3C5.5 2.44772 5.05228 2 4.5 2C3.94772 2 3.5 2.44772 3.5 3C3.5 3.55228 3.94772 4 4.5 4ZM4.5 6C6.15685 6 7.5 4.65685 7.5 3C7.5 1.34315 6.15685 0 4.5 0C2.84315 0 1.5 1.34315 1.5 3C1.5 4.65685 2.84315 6 4.5 6Z" fill="#202020"/>
<path d="M12.5 6.5C12.5 7.88071 11.3807 9 10 9C8.61929 9 7.5 7.88071 7.5 6.5C7.5 5.11929 8.61929 4 10 4C11.3807 4 12.5 5.11929 12.5 6.5Z" fill="#202020"/>
<path fill-rule="evenodd" clip-rule="evenodd" d="M10 7C10.2761 7 10.5 6.77614 10.5 6.5C10.5 6.22386 10.2761 6 10 6C9.72386 6 9.5 6.22386 9.5 6.5C9.5 6.77614 9.72386 7 10 7ZM10 9C11.3807 9 12.5 7.88071 12.5 6.5C12.5 5.11929 11.3807 4 10 4C8.61929 4 7.5 5.11929 7.5 6.5C7.5 7.88071 8.61929 9 10 9Z" fill="#202020"/>
<path fill-rule="evenodd" clip-rule="evenodd" d="M7 11C7 10.4477 7.44772 10 8 10L12 10C12.5523 10 13 10.4477 13 11C13 11.5523 12.5523 12 12 12L8 12C7.44772 12 7 11.5523 7 11Z" fill="#202020"/>
<path fill-rule="evenodd" clip-rule="evenodd" d="M0.5 8C0.5 7.44772 0.947715 7 1.5 7L7.5 7C8.05228 7 8.5 7.44772 8.5 8C8.5 8.55228 8.05228 9 7.5 9L1.5 9C0.947715 9 0.5 8.55228 0.5 8Z" fill="#202020"/>
<path d="M2.74693 16H10.5563L12 18H1.65234L2.74693 16Z" fill="#F0F0F0" className="keep-bg" />
</svg>
