<svg width="19" height="18" viewBox="0 0 19 18" fill="none" xmlns="http://www.w3.org/2000/svg">
<path d="M18 14.0625C18 14.2559 17.9097 14.5319 17.5535 14.8809C17.194 15.2332 16.6222 15.5965 15.8346 15.9229C14.264 16.5739 12.0249 17 9.5 17C6.9751 17 4.73603 16.5739 3.16537 15.9229C2.37778 15.5965 1.80596 15.2332 1.44646 14.8809C1.09032 14.5319 1 14.2559 1 14.0625C1 13.8691 1.09032 13.5931 1.44646 13.2441C1.80596 12.8918 2.37778 12.5285 3.16537 12.2021C4.73603 11.5511 6.9751 11.125 9.5 11.125C12.0249 11.125 14.264 11.5511 15.8346 12.2021C16.6222 12.5285 17.194 12.8918 17.5535 13.2441C17.9097 13.5931 18 13.8691 18 14.0625Z" stroke="#202020" stroke-width="2"/>
<path d="M18 10.6875C18 10.8809 17.9097 11.1569 17.5535 11.5059C17.194 11.8582 16.6222 12.2215 15.8346 12.5479C14.264 13.1989 12.0249 13.625 9.5 13.625C6.9751 13.625 4.73603 13.1989 3.16537 12.5479C2.37778 12.2215 1.80596 11.8582 1.44646 11.5059C1.09032 11.1569 1 10.8809 1 10.6875C1 10.4941 1.09032 10.2181 1.44646 9.86909C1.80596 9.5168 2.37778 9.1535 3.16537 8.82706C4.73603 8.17607 6.9751 7.75 9.5 7.75C12.0249 7.75 14.264 8.17607 15.8346 8.82706C16.6222 9.1535 17.194 9.5168 17.5535 9.86909C17.9097 10.2181 18 10.4941 18 10.6875Z" fill="#F0F0F0" stroke="#202020" stroke-width="2"/>
<path d="M18 7.3125C18 7.50586 17.9097 7.78193 17.5535 8.13091C17.194 8.4832 16.6222 8.8465 15.8346 9.17294C14.264 9.82393 12.0249 10.25 9.5 10.25C6.9751 10.25 4.73603 9.82393 3.16537 9.17294C2.37778 8.8465 1.80596 8.4832 1.44646 8.13091C1.09032 7.78193 1 7.50586 1 7.3125C1 7.11914 1.09032 6.84307 1.44646 6.49409C1.80596 6.1418 2.37778 5.7785 3.16537 5.45206C4.73603 4.80107 6.9751 4.375 9.5 4.375C12.0249 4.375 14.264 4.80107 15.8346 5.45206C16.6222 5.7785 17.194 6.1418 17.5535 6.49409C17.9097 6.84307 18 7.11914 18 7.3125Z" fill="#F0F0F0" stroke="#202020" stroke-width="2"/>
<path d="M18 3.9375C18 4.13086 17.9097 4.40693 17.5535 4.75591C17.194 5.1082 16.6222 5.4715 15.8346 5.79794C14.264 6.44893 12.0249 6.875 9.5 6.875C6.9751 6.875 4.73603 6.44893 3.16537 5.79794C2.37778 5.4715 1.80596 5.1082 1.44646 4.75591C1.09032 4.40693 1 4.13086 1 3.9375C1 3.74414 1.09032 3.46807 1.44646 3.11909C1.80596 2.7668 2.37778 2.4035 3.16537 2.07706C4.73603 1.42607 6.9751 1 9.5 1C12.0249 1 14.264 1.42607 15.8346 2.07706C16.6222 2.4035 17.194 2.7668 17.5535 3.11909C17.9097 3.46807 18 3.74414 18 3.9375Z" fill="#F0F0F0" stroke="#202020" stroke-width="2"/>
</svg>
