<svg width="19" height="18" viewBox="0 0 19 18" fill="none" xmlns="http://www.w3.org/2000/svg">
<path fill-rule="evenodd" clip-rule="evenodd" d="M17.0153 13.966C17.0156 13.966 17.0145 13.9693 17.0111 13.9759C17.0133 13.9693 17.015 13.966 17.0153 13.966ZM16.9505 14.0625C16.927 14.0341 16.8955 13.9993 16.8536 13.9583C16.6154 13.7248 16.1673 13.4225 15.4517 13.1259C14.0296 12.5364 11.9264 12.125 9.5 12.125C7.07355 12.125 4.97042 12.5364 3.54826 13.1259C2.83266 13.4225 2.38464 13.7248 2.14636 13.9583C2.1045 13.9993 2.07299 14.0341 2.04946 14.0625C2.07299 14.0909 2.1045 14.1257 2.14636 14.1667C2.38464 14.4002 2.83266 14.7025 3.54826 14.9991C4.97042 15.5886 7.07355 16 9.5 16C11.9264 16 14.0296 15.5886 15.4517 14.9991C16.1673 14.7025 16.6154 14.4002 16.8536 14.1667C16.8955 14.1257 16.927 14.0909 16.9505 14.0625ZM1.98474 13.966C1.98505 13.966 1.98673 13.9693 1.98887 13.9759C1.98551 13.9693 1.98444 13.966 1.98474 13.966ZM1.98474 14.159C1.98444 14.159 1.98551 14.1557 1.98887 14.1491C1.98673 14.1557 1.98505 14.159 1.98474 14.159ZM17.0111 14.1491C17.0145 14.1557 17.0156 14.159 17.0153 14.159C17.0149 14.159 17.0133 14.1557 17.0111 14.1491ZM9.5 18C14.7467 18 19 16.2371 19 14.0625C19 11.8879 14.7467 10.125 9.5 10.125C4.25329 10.125 0 11.8879 0 14.0625C0 16.2371 4.25329 18 9.5 18Z" fill="#202020"/>
<path className="keep-background" d="M19 10.6875C19 12.8621 14.7467 14.625 9.5 14.625C4.25329 14.625 0 12.8621 0 10.6875C0 8.51288 4.25329 6.75 9.5 6.75C14.7467 6.75 19 8.51288 19 10.6875Z" fill="#F0F0F0"/>
<path fill-rule="evenodd" clip-rule="evenodd" d="M17.0153 10.591C17.0156 10.591 17.0145 10.5943 17.0111 10.6009C17.0133 10.5943 17.015 10.591 17.0153 10.591ZM16.9505 10.6875C16.927 10.6591 16.8955 10.6243 16.8536 10.5833C16.6154 10.3498 16.1673 10.0475 15.4517 9.75086C14.0296 9.16141 11.9264 8.75 9.5 8.75C7.07355 8.75 4.97042 9.16141 3.54826 9.75086C2.83266 10.0475 2.38464 10.3498 2.14636 10.5833C2.1045 10.6243 2.07299 10.6591 2.04946 10.6875C2.07299 10.7159 2.1045 10.7507 2.14636 10.7917C2.38464 11.0252 2.83266 11.3275 3.54826 11.6241C4.97042 12.2136 7.07355 12.625 9.5 12.625C11.9264 12.625 14.0296 12.2136 15.4517 11.6241C16.1673 11.3275 16.6154 11.0252 16.8536 10.7917C16.8955 10.7507 16.927 10.7159 16.9505 10.6875ZM1.98474 10.591C1.98505 10.591 1.98673 10.5943 1.98887 10.6009C1.98551 10.5943 1.98444 10.591 1.98474 10.591ZM1.98474 10.784C1.98444 10.784 1.98551 10.7807 1.98887 10.7741C1.98673 10.7807 1.98505 10.784 1.98474 10.784ZM17.0111 10.7741C17.0145 10.7807 17.0156 10.784 17.0153 10.784C17.0149 10.784 17.0133 10.7807 17.0111 10.7741ZM9.5 14.625C14.7467 14.625 19 12.8621 19 10.6875C19 8.51288 14.7467 6.75 9.5 6.75C4.25329 6.75 0 8.51288 0 10.6875C0 12.8621 4.25329 14.625 9.5 14.625Z" fill="#202020"/>
<path className="keep-background" d="M19 7.3125C19 9.48712 14.7467 11.25 9.5 11.25C4.25329 11.25 0 9.48712 0 7.3125C0 5.13788 4.25329 3.375 9.5 3.375C14.7467 3.375 19 5.13788 19 7.3125Z" fill="#F0F0F0"/>
<path fill-rule="evenodd" clip-rule="evenodd" d="M17.0153 7.21597C17.0156 7.21597 17.0145 7.21929 17.0111 7.22594C17.0133 7.2193 17.015 7.21598 17.0153 7.21597ZM16.9505 7.3125C16.927 7.28407 16.8955 7.24934 16.8536 7.20833C16.6154 6.97483 16.1673 6.67245 15.4517 6.37586C14.0296 5.78641 11.9264 5.375 9.5 5.375C7.07355 5.375 4.97042 5.78641 3.54826 6.37586C2.83266 6.67245 2.38464 6.97483 2.14636 7.20833C2.1045 7.24935 2.07299 7.28407 2.04946 7.3125C2.07299 7.34093 2.1045 7.37565 2.14636 7.41667C2.38464 7.65017 2.83266 7.95255 3.54826 8.24914C4.97042 8.83859 7.07355 9.25 9.5 9.25C11.9264 9.25 14.0296 8.83859 15.4517 8.24914C16.1673 7.95255 16.6154 7.65017 16.8536 7.41667C16.8955 7.37566 16.927 7.34094 16.9505 7.3125ZM1.98474 7.21597C1.98505 7.21598 1.98673 7.2193 1.98887 7.22594C1.98551 7.21929 1.98444 7.21597 1.98474 7.21597ZM1.98474 7.40903C1.98444 7.40903 1.98551 7.40571 1.98887 7.39906C1.98673 7.4057 1.98505 7.40902 1.98474 7.40903ZM17.0111 7.39906C17.0145 7.40571 17.0156 7.40903 17.0153 7.40903C17.0149 7.40902 17.0133 7.4057 17.0111 7.39906ZM9.5 11.25C14.7467 11.25 19 9.48712 19 7.3125C19 5.13788 14.7467 3.375 9.5 3.375C4.25329 3.375 0 5.13788 0 7.3125C0 9.48712 4.25329 11.25 9.5 11.25Z" fill="#202020"/>
<path className="keep-background" d="M19 3.9375C19 6.11212 14.7467 7.875 9.5 7.875C4.25329 7.875 0 6.11212 0 3.9375C0 1.76288 4.25329 0 9.5 0C14.7467 0 19 1.76288 19 3.9375Z" fill="#F0F0F0"/>
<path fill-rule="evenodd" clip-rule="evenodd" d="M17.0153 3.84097C17.0156 3.84097 17.0145 3.84429 17.0111 3.85094C17.0133 3.8443 17.015 3.84098 17.0153 3.84097ZM16.9505 3.9375C16.927 3.90907 16.8955 3.87434 16.8536 3.83333C16.6154 3.59983 16.1673 3.29745 15.4517 3.00086C14.0296 2.41141 11.9264 2 9.5 2C7.07355 2 4.97042 2.41141 3.54826 3.00086C2.83266 3.29745 2.38464 3.59983 2.14636 3.83333C2.1045 3.87435 2.07299 3.90907 2.04946 3.9375C2.07299 3.96593 2.1045 4.00065 2.14636 4.04167C2.38464 4.27517 2.83266 4.57755 3.54826 4.87414C4.97042 5.46359 7.07355 5.875 9.5 5.875C11.9264 5.875 14.0296 5.46359 15.4517 4.87414C16.1673 4.57755 16.6154 4.27517 16.8536 4.04167C16.8955 4.00066 16.927 3.96594 16.9505 3.9375ZM1.98474 3.84097C1.98505 3.84098 1.98673 3.8443 1.98887 3.85094C1.98551 3.84429 1.98444 3.84097 1.98474 3.84097ZM1.98474 4.03403C1.98444 4.03403 1.98551 4.03071 1.98887 4.02406C1.98673 4.0307 1.98505 4.03402 1.98474 4.03403ZM17.0111 4.02406C17.0145 4.03071 17.0156 4.03403 17.0153 4.03403C17.0149 4.03402 17.0133 4.0307 17.0111 4.02406ZM9.5 7.875C14.7467 7.875 19 6.11212 19 3.9375C19 1.76288 14.7467 0 9.5 0C4.25329 0 0 1.76288 0 3.9375C0 6.11212 4.25329 7.875 9.5 7.875Z" fill="#202020"/>
</svg>
