<svg width="11" height="18" viewBox="0 0 11 18" fill="none" xmlns="http://www.w3.org/2000/svg">
<path fill-rule="evenodd" clip-rule="evenodd" d="M1 0C1.55228 0 2 0.447715 2 1V3H9V1C9 0.447715 9.44771 0 10 0C10.5523 0 11 0.447715 11 1V17C11 17.5523 10.5523 18 10 18C9.44771 18 9 17.5523 9 17V14H2V17C2 17.5523 1.55228 18 1 18C0.447715 18 0 17.5523 0 17V1C0 0.447715 0.447715 0 1 0ZM2 12H9V9.5H2V12ZM2 7.5H9V5H2V7.5Z" fill="#202020"/>
<path d="M2 16H9V18H2V16Z" fill="#F0F0F0" className="keep-bg" />
</svg>
