<svg width="50" height="17" viewBox="0 0 50 17" fill="none" xmlns="http://www.w3.org/2000/svg">
<path fill-rule="evenodd" clip-rule="evenodd" d="M5.06146 1.81834C5.53418 0.715235 6.61882 0 7.81894 0H14.2489C14.9756 0 15.6775 0.263755 16.2244 0.74227L19.0933 3.25258C19.2756 3.41208 19.5096 3.5 19.7519 3.5H27.918C28.1082 3.5 28.2944 3.44577 28.4549 3.34366L32.9722 0.469016C33.4535 0.162701 34.0122 0 34.5828 0H41.2267C42.3922 0 43.4523 0.67512 43.9452 1.73134L46.9349 8.1378L49.4549 16.2017L47.5459 16.7983L45.0659 8.86219L42.1328 2.57711C41.9685 2.22504 41.6152 2 41.2267 2H34.5828C34.3926 2 34.2064 2.05423 34.0459 2.15634L29.5286 5.03098C29.0473 5.3373 28.4885 5.5 27.918 5.5H19.7519C19.0252 5.5 18.3232 5.23625 17.7763 4.75773L14.9074 2.24742C14.7251 2.08792 14.4911 2 14.2489 2H7.81894C7.4189 2 7.05735 2.23841 6.89978 2.60611L4.44297 8.33922L1.95975 16.7822L0.0410156 16.2178L2.5578 7.66078L5.06146 1.81834Z" fill="#202020"/>
<path d="M14.5 10.5C14.5 12.433 12.933 14 11 14C9.067 14 7.5 12.433 7.5 10.5C7.5 8.567 9.067 7 11 7C12.933 7 14.5 8.567 14.5 10.5Z" fill="#202020"/>
<path d="M22.5 12C22.5 12.5523 21.8284 13 21 13C20.1716 13 19.5 12.5523 19.5 12C19.5 11.4477 20.1716 11 21 11C21.8284 11 22.5 11.4477 22.5 12Z" fill="#202020"/>
<path d="M28.5 12C28.5 12.5523 27.8284 13 27 13C26.1716 13 25.5 12.5523 25.5 12C25.5 11.4477 26.1716 11 27 11C27.8284 11 28.5 11.4477 28.5 12Z" fill="#202020"/>
<path d="M39.5 7.5C39.5 8.32843 38.8284 9 38 9C37.1716 9 36.5 8.32843 36.5 7.5C36.5 6.67157 37.1716 6 38 6C38.8284 6 39.5 6.67157 39.5 7.5Z" fill="#202020"/>
<path d="M39.5 13.5C39.5 14.3284 38.8284 15 38 15C37.1716 15 36.5 14.3284 36.5 13.5C36.5 12.6716 37.1716 12 38 12C38.8284 12 39.5 12.6716 39.5 13.5Z" fill="#202020"/>
<path d="M42.5 10.5C42.5 11.3284 41.8284 12 41 12C40.1716 12 39.5 11.3284 39.5 10.5C39.5 9.67157 40.1716 9 41 9C41.8284 9 42.5 9.67157 42.5 10.5Z" fill="#202020"/>
<path d="M36.5 10.5C36.5 11.3284 35.8284 12 35 12C34.1716 12 33.5 11.3284 33.5 10.5C33.5 9.67157 34.1716 9 35 9C35.8284 9 36.5 9.67157 36.5 10.5Z" fill="#202020"/>
<path d="M2.77913 14H46.6742L47.6064 17H1.91016L2.77913 14Z" fill="#F0F0F0" className="keep-background" />
</svg>
