<svg width="17" height="17" viewBox="0 0 17 17" fill="none" xmlns="http://www.w3.org/2000/svg">
<path fill-rule="evenodd" clip-rule="evenodd" d="M4.20279 0.0209393C4.74362 0.132835 5.09134 0.661975 4.97945 1.20281L3.72826 7.2502H8.73038L10.0196 0.804084C10.1279 0.262524 10.6547 -0.0886928 11.1963 0.0196191C11.7379 0.127931 12.0891 0.654756 11.9808 1.19632L8.98077 16.1963C8.87246 16.7379 8.34563 17.0891 7.80407 16.9808C7.26251 16.8725 6.91129 16.3456 7.01961 15.8041L8.33038 9.2502H3.3252L1.98197 16.1902C1.87702 16.7324 1.35239 17.0869 0.810164 16.982C0.267942 16.877 -0.0865399 16.3524 0.0184063 15.8102L1.52085 8.04758L3.02093 0.797594C3.13282 0.256764 3.66196 -0.0909566 4.20279 0.0209393ZM15.1902 7.26842C15.7324 7.37337 16.0869 7.898 15.982 8.44022L14.482 16.1902C14.377 16.7324 13.8524 17.0869 13.3102 16.982C12.7679 16.877 12.4135 16.3524 12.5184 15.8102L14.0184 8.06018C14.1234 7.51796 14.648 7.16347 15.1902 7.26842Z" fill="#202020"/>
<path d="M16.5 5.5C16.5 6.05228 16.0523 6.5 15.5 6.5C14.9477 6.5 14.5 6.05228 14.5 5.5C14.5 4.94772 14.9477 4.5 15.5 4.5C16.0523 4.5 16.5 4.94772 16.5 5.5Z" fill="#202020"/>
<path d="M2.21404 15H7.17575L6.70092 17H1.80859L2.21404 15Z" fill="#F0F0F0" className="keep-bg" />
</svg>
