<svg width="27" height="17" viewBox="0 0 27 17" fill="none" xmlns="http://www.w3.org/2000/svg">
<path fill-rule="evenodd" clip-rule="evenodd" d="M8.82918 1.10557C9.16796 0.428004 9.86049 0 10.618 0H16.382C17.1395 0 17.832 0.428005 18.1708 1.10557L19.618 4H25C26.1046 4 27 4.89543 27 6V16C27 16.5523 26.5523 17 26 17C25.4477 17 25 16.5523 25 16V6H19.618C18.8605 6 18.168 5.572 17.8292 4.89443L16.382 2L10.618 2L9.17082 4.89443C8.83204 5.572 8.13951 6 7.38197 6L2 6V16C2 16.5523 1.55228 17 1 17C0.447715 17 0 16.5523 0 16V6C0 4.89543 0.895431 4 2 4H7.38197L8.82918 1.10557Z" fill="#202020"/>
<path className="keep-bg" d="M2 15H25V17H2V15Z" fill="#F0F0F0"/>
<path fill-rule="evenodd" clip-rule="evenodd" d="M13.5 12C14.8807 12 16 10.8807 16 9.5C16 8.11929 14.8807 7 13.5 7C12.1193 7 11 8.11929 11 9.5C11 10.8807 12.1193 12 13.5 12ZM13.5 14C15.9853 14 18 11.9853 18 9.5C18 7.01472 15.9853 5 13.5 5C11.0147 5 9 7.01472 9 9.5C9 11.9853 11.0147 14 13.5 14Z" fill="#202020"/>
<path fill-rule="evenodd" clip-rule="evenodd" d="M4.55615 5.33121C4.69283 5.72071 5.0638 6 5.5 6C6.05228 6 6.5 5.55228 6.5 5V4.25C6.5 3.2835 5.7165 2.5 4.75 2.5C3.7835 2.5 3 3.2835 3 4.25V4.5C3 5.05228 3.44772 5.5 4 5.5C4.20583 5.5 4.39713 5.43781 4.55615 5.33121Z" fill="#202020"/>
</svg>
