<svg width="23" height="17" viewBox="0 0 23 17" fill="none" xmlns="http://www.w3.org/2000/svg">
<path fill-rule="evenodd" clip-rule="evenodd" d="M8.64264 12.4569C9.44475 11.3874 10 9.81824 10 8C10 6.18176 9.44475 4.61263 8.64264 3.54315C7.84099 2.47428 6.8862 2 6 2C5.1138 2 4.15901 2.47428 3.35736 3.54315C2.55525 4.61263 2 6.18176 2 8C2 9.81824 2.55525 11.3874 3.35736 12.4569C4.15901 13.5257 5.1138 14 6 14C6.8862 14 7.84099 13.5257 8.64264 12.4569ZM6 16C9.31371 16 12 12.4183 12 8C12 3.58172 9.31371 0 6 0C2.68629 0 0 3.58172 0 8C0 12.4183 2.68629 16 6 16Z" fill="#202020"/>
<path d="M7 8C7 9.65685 5.65685 11 4 11C2.34315 11 1 9.65685 1 8C1 6.34315 2.34315 5 4 5C5.65685 5 7 6.34315 7 8Z" fill="#202020"/>
<path d="M4 7C4 7.55228 4.44772 8 5 8C5.55228 8 6 7.55228 6 7C6 6.44772 5.55228 6 5 6C4.44772 6 4 6.44772 4 7Z" fill="#F0F0F0"/>
<path fill-rule="evenodd" clip-rule="evenodd" d="M19.6426 12.4569C20.4447 11.3874 21 9.81824 21 8C21 6.18176 20.4447 4.61263 19.6426 3.54315C18.841 2.47428 17.8862 2 17 2C16.1138 2 15.159 2.47428 14.3574 3.54315C13.5552 4.61263 13 6.18176 13 8C13 9.81824 13.5552 11.3874 14.3574 12.4569C15.159 13.5257 16.1138 14 17 14C17.8862 14 18.841 13.5257 19.6426 12.4569ZM17 16C20.3137 16 23 12.4183 23 8C23 3.58172 20.3137 0 17 0C13.6863 0 11 3.58172 11 8C11 12.4183 13.6863 16 17 16Z" fill="#202020"/>
<path d="M18 8C18 9.65685 16.6569 11 15 11C13.3431 11 12 9.65685 12 8C12 6.34315 13.3431 5 15 5C16.6569 5 18 6.34315 18 8Z" fill="#202020"/>
<path d="M15 7C15 7.55228 15.4477 8 16 8C16.5523 8 17 7.55228 17 7C17 6.44772 16.5523 6 16 6C15.4477 6 15 6.44772 15 7Z" fill="#F0F0F0"/>
<path d="M8.90675 15H14.0898L15.4374 15.9556C15.4791 15.9852 15.5229 16.0115 15.5686 16.0343L17.5 17H6L7.63315 16.0412C7.67989 16.0138 7.72432 15.9826 7.766 15.948L8.90675 15Z" fill="#F0F0F0" className="keep-bg" />
</svg>
