<svg width="24" height="18" viewBox="0 0 24 18" fill="none" xmlns="http://www.w3.org/2000/svg">
<path fill-rule="evenodd" clip-rule="evenodd" d="M4 14H2V16H4V14ZM0 12V18H6V12H0Z" fill="#202020"/>
<path fill-rule="evenodd" clip-rule="evenodd" d="M16 14H14V16H16V14ZM12 12V18H18V12H12Z" fill="#202020"/>
<path fill-rule="evenodd" clip-rule="evenodd" d="M10 8H8V10H10V8ZM6 6V12H12V6H6Z" fill="#202020"/>
<path fill-rule="evenodd" clip-rule="evenodd" d="M16 2H14V4H16V2ZM12 0V6H18V0H12Z" fill="#202020"/>
<path fill-rule="evenodd" clip-rule="evenodd" d="M22 8H20V10H22V8ZM18 6V12H24V6H18Z" fill="#202020"/>
<path fill-rule="evenodd" clip-rule="evenodd" d="M4 8H2V10H4V8ZM0 6V12H6V6H0Z" fill="#202020"/>
<path d="M6 16H12V18H6V16Z" fill="#F0F0F0" className="keep-background"/>
</svg>
