<svg width="39" height="19" viewBox="0 0 39 19" fill="none" xmlns="http://www.w3.org/2000/svg">
<path fill-rule="evenodd" clip-rule="evenodd" d="M20.0004 2.5C20.0004 1.39543 20.8959 0.5 22.0004 0.5H25.5004C26.605 0.5 27.5004 1.39543 27.5004 2.5V9H36.7967C38.515 9 39.4333 11.0238 38.3018 12.317L32.753 18.6585C32.3893 19.0741 31.7576 19.1163 31.3419 18.7526C30.9263 18.3889 30.8842 17.7571 31.2478 17.3415L36.7967 11H27.5004C26.3958 11 25.5004 10.1046 25.5004 9V2.5H22.0004V9C22.0004 10.1046 21.105 11 20.0004 11H18.5004C17.3958 11 16.5004 10.1046 16.5004 9V5H14.0004V9C14.0004 10.1046 13.105 11 12.0004 11L2.30865 11L8.22996 17.3161C8.60769 17.719 8.58727 18.3518 8.18436 18.7295C7.78145 19.1073 7.14861 19.0869 6.77088 18.6839L0.849579 12.3679C-0.347917 11.0906 0.557769 9 2.30865 9H12.0004V5C12.0004 3.89543 12.8959 3 14.0004 3H16.5004C17.605 3 18.5004 3.89543 18.5004 5V9H20.0004V2.5Z" fill="#202020"/>
<path d="M14 14C14 14.5523 13.5523 15 13 15C12.4477 15 12 14.5523 12 14C12 13.4477 12.4477 13 13 13C13.5523 13 14 13.4477 14 14Z" fill="#202020"/>
<path fill-rule="evenodd" clip-rule="evenodd" d="M13 15C13.5523 15 14 14.5523 14 14C14 13.4477 13.5523 13 13 13C12.4477 13 12 13.4477 12 14C12 14.5523 12.4477 15 13 15Z" fill="#202020"/>
<path d="M18 14C18 14.5523 17.5523 15 17 15C16.4477 15 16 14.5523 16 14C16 13.4477 16.4477 13 17 13C17.5523 13 18 13.4477 18 14Z" fill="#202020"/>
<path fill-rule="evenodd" clip-rule="evenodd" d="M17 15C17.5523 15 18 14.5523 18 14C18 13.4477 17.5523 13 17 13C16.4477 13 16 13.4477 16 14C16 14.5523 16.4477 15 17 15Z" fill="#202020"/>
<path d="M22 14C22 14.5523 21.5523 15 21 15C20.4477 15 20 14.5523 20 14C20 13.4477 20.4477 13 21 13C21.5523 13 22 13.4477 22 14Z" fill="#202020"/>
<path fill-rule="evenodd" clip-rule="evenodd" d="M21 15C21.5523 15 22 14.5523 22 14C22 13.4477 21.5523 13 21 13C20.4477 13 20 13.4477 20 14C20 14.5523 20.4477 15 21 15Z" fill="#202020"/>
<path d="M26 14C26 14.5523 25.5523 15 25 15C24.4477 15 24 14.5523 24 14C24 13.4477 24.4477 13 25 13C25.5523 13 26 13.4477 26 14Z" fill="#202020"/>
<path fill-rule="evenodd" clip-rule="evenodd" d="M25 15C25.5523 15 26 14.5523 26 14C26 13.4477 25.5523 13 25 13C24.4477 13 24 13.4477 24 14C24 14.5523 24.4477 15 25 15Z" fill="#202020"/>
<path d="M7.92969 17H31.5469L29.8086 19H9.76562L7.92969 17Z" fill="#F0F0F0" className="keep-bg" />
</svg>
