<svg width="18" height="18" viewBox="0 0 18 18" fill="none" xmlns="http://www.w3.org/2000/svg">
<path fill-rule="evenodd" clip-rule="evenodd" d="M5.33333 0.585786C5.70841 0.210713 6.21712 0 6.74755 0H11.2525C11.7829 0 12.2916 0.210714 12.6667 0.585787L17.4142 5.33333C17.7893 5.70841 18 6.21712 18 6.74755V11.2525C18 11.7829 17.7893 12.2916 17.4142 12.6667L12.6667 17.4142C12.2916 17.7893 11.7829 18 11.2525 18H6.74755C6.21711 18 5.70841 17.7893 5.33333 17.4142L0.585786 12.6667C0.210713 12.2916 0 11.7829 0 11.2525V6.74755C0 6.21711 0.210714 5.70841 0.585787 5.33333L5.33333 0.585786ZM11.2525 2H6.74755L2 6.74755L1.29289 6.04044L2 6.74755V11.2525L6.74755 16H11.2525L16 11.2525V6.74755L11.2525 2Z" fill="#202020"/>
<path fill-rule="evenodd" clip-rule="evenodd" d="M4 9C4 8.44772 4.44772 8 5 8H13C13.5523 8 14 8.44772 14 9C14 9.55228 13.5523 10 13 10H5C4.44772 10 4 9.55228 4 9Z" fill="#202020"/>
</svg>
