<svg width="28" height="28" viewBox="0 0 28 28" fill="none" xmlns="http://www.w3.org/2000/svg">
<path d="M26.4516 17.3371C24.3254 17.9334 22.0788 17.9529 19.9426 17.3938C17.8064 16.8346 15.8575 15.7169 14.2961 14.1555C12.7346 12.5941 11.617 10.6452 11.0578 8.50896C10.4987 6.37273 10.5182 4.12618 11.1144 2C9.0182 2.58345 7.11143 3.70593 5.58404 5.25563C4.05664 6.80534 2.96192 8.72818 2.40892 10.8326C1.85592 12.9371 1.86394 15.1497 2.43218 17.2501C3.00042 19.3505 4.10905 21.2653 5.64764 22.8039C7.18623 24.3425 9.10108 25.4511 11.2015 26.0194C13.3019 26.5876 15.5145 26.5956 17.6189 26.0426C19.7234 25.4896 21.6462 24.3949 23.1959 22.8675C24.7456 21.3401 25.8681 19.4334 26.4516 17.3371Z" stroke="var(--text)" stroke-width="2.16588" stroke-linecap="round" stroke-linejoin="round"/>
</svg>
