<svg width="30" height="31" viewBox="0 0 30 31" fill="none" xmlns="http://www.w3.org/2000/svg">
<g clip-path="url(#clip0_2645_76)">
<path d="M14.7404 22.6083C18.5559 22.6083 21.6489 19.5153 21.6489 15.6999C21.6489 11.8845 18.5559 8.7915 14.7404 8.7915C10.925 8.7915 7.83203 11.8845 7.83203 15.6999C7.83203 19.5153 10.925 22.6083 14.7404 22.6083Z" stroke="var(--text)" stroke-width="1.84224" stroke-linecap="round" stroke-linejoin="round"/>
<path d="M14.7383 5.10749V2.80469" stroke="var(--text)" stroke-width="1.84224" stroke-linecap="round" stroke-linejoin="round"/>
<path d="M7.24457 8.20453L5.62109 6.58105" stroke="var(--text)" stroke-width="1.84224" stroke-linecap="round" stroke-linejoin="round"/>
<path d="M4.14655 15.7002H1.84375" stroke="var(--text)" stroke-width="1.84224" stroke-linecap="round" stroke-linejoin="round"/>
<path d="M7.24457 23.1958L5.62109 24.8193" stroke="var(--text)" stroke-width="1.84224" stroke-linecap="round" stroke-linejoin="round"/>
<path d="M14.7383 26.293V28.5958" stroke="var(--text)" stroke-width="1.84224" stroke-linecap="round" stroke-linejoin="round"/>
<path d="M22.2344 23.1958L23.8579 24.8193" stroke="var(--text)" stroke-width="1.84224" stroke-linecap="round" stroke-linejoin="round"/>
<path d="M25.332 15.7002H27.6348" stroke="var(--text)" stroke-width="1.84224" stroke-linecap="round" stroke-linejoin="round"/>
<path d="M22.2344 8.20453L23.8579 6.58105" stroke="var(--text)" stroke-width="1.84224" stroke-linecap="round" stroke-linejoin="round"/>
</g>
<defs>
<clipPath id="clip0_2645_76">
<rect width="29.4759" height="29.4759" fill="white" transform="translate(0 0.962402)"/>
</clipPath>
</defs>
</svg>
